<?xml version="1.0" standalone="no"?>
<!DOCTYPE svg PUBLIC "-//W3C//DTD SVG 20010904//EN"
 "http://www.w3.org/TR/2001/REC-SVG-20010904/DTD/svg10.dtd">
<svg version="1.0" xmlns="http://www.w3.org/2000/svg"
 width="474.000000pt" height="474.000000pt" viewBox="0 0 474.000000 474.000000"
 preserveAspectRatio="xMidYMid meet">

<g transform="translate(0.000000,474.000000) scale(0.100000,-0.100000)"
fill="#000000" stroke="none">
<path d="M2340 4461 c62 -7 63 -8 20 -11 l-45 -3 40 -7 c36 -7 34 -7 -13 -4
-29 1 -60 8 -68 15 -27 22 -377 -20 -407 -50 -8 -8 -7 -11 5 -11 9 0 20 5 23
10 3 6 45 10 93 10 61 0 83 3 72 10 -10 7 22 10 103 8 64 -1 117 -4 117 -7 0
-4 83 -6 184 -6 143 0 182 3 179 13 -3 7 4 13 18 13 58 4 -90 18 -231 22 -90
3 -128 2 -90 -2z m-107 -18 c-7 -2 -21 -2 -30 0 -10 3 -4 5 12 5 17 0 24 -2
18 -5z m337 -3 c-8 -5 -24 -9 -35 -9 -16 1 -16 2 5 9 35 11 48 11 30 0z"/>
<path d="M2703 4433 c9 -2 17 -9 17 -14 0 -5 24 -9 53 -9 35 0 47 -3 38 -9
-10 -6 -1 -8 26 -4 25 3 43 1 47 -6 5 -7 -3 -11 -23 -11 -37 0 -43 -27 -8 -32
14 -2 23 -11 25 -26 3 -22 6 -22 119 -21 73 1 119 -3 126 -10 8 -8 0 -11 -31
-11 -23 0 -42 -5 -42 -11 0 -7 28 -9 78 -8 43 2 84 -1 91 -6 10 -5 12 -4 7 3
-4 7 -2 12 3 12 6 0 11 -4 11 -10 0 -5 12 -10 28 -9 21 0 12 8 -48 36 -56 26
-87 35 -122 34 -47 -1 -65 12 -30 23 9 3 5 4 -10 2 -16 -2 -28 0 -28 5 0 17
-276 91 -327 88 -17 -1 -17 -2 0 -6z m251 -62 c8 -12 -32 -18 -79 -12 l-40 5
35 7 c53 10 78 10 84 0z m231 -91 c-3 -5 -11 -10 -16 -10 -6 0 -7 5 -4 10 3 6
11 10 16 10 6 0 7 -4 4 -10z"/>
<path d="M1772 4381 c-70 -20 -97 -37 -42 -27 26 5 31 4 20 -3 -8 -6 -35 -10
-60 -9 -42 1 -102 -19 -230 -81 -49 -24 -154 -83 -160 -90 -3 -3 -23 -15 -45
-25 l-40 -19 28 -12 c15 -6 24 -15 20 -20 -5 -5 0 -3 9 4 10 7 15 17 13 22 -7
10 30 49 45 49 11 0 14 -20 3 -20 -5 0 -14 -4 -21 -8 -14 -9 -6 -42 10 -42 5
0 7 4 3 9 -9 16 16 25 26 10 7 -9 7 -5 3 14 -5 24 -3 27 20 27 14 0 26 -4 26
-10 0 -5 -4 -10 -10 -10 -5 0 -10 -9 -10 -20 0 -16 7 -20 30 -20 29 0 30 2 30
44 l0 44 -44 -2 c-24 -1 -42 2 -40 6 3 5 13 8 23 8 10 0 24 7 31 15 7 8 17 15
22 15 6 0 4 -7 -3 -17 -12 -14 -12 -16 1 -11 8 2 16 14 18 26 3 20 10 22 75
24 40 1 81 1 91 1 17 0 17 1 3 12 -15 11 -14 13 9 24 15 6 24 14 22 16 -8 8
-68 -16 -68 -27 0 -5 -5 -6 -12 -2 -7 4 8 16 38 31 27 13 50 19 52 15 4 -14
94 -1 110 15 7 7 19 13 25 14 7 0 3 4 -8 9 -20 8 -20 9 1 9 11 1 29 8 40 16
23 18 23 18 -54 -4z m-235 -117 c-3 -3 -12 -4 -19 -1 -8 3 -5 6 6 6 11 1 17
-2 13 -5z m-263 -129 c-4 -8 -11 -15 -16 -15 -6 0 -5 6 2 15 7 8 14 15 16 15
2 0 1 -7 -2 -15z"/>
<path d="M1830 4370 c-11 -7 -11 -10 -2 -10 7 0 11 -3 9 -7 -8 -14 57 -11 70
2 10 11 4 12 -30 9 -32 -3 -37 -2 -22 5 14 7 15 10 5 10 -8 0 -22 -4 -30 -9z"/>
<path d="M1662 4292 c-13 -4 -23 -10 -23 -14 1 -5 1 -12 1 -16 0 -4 26 -8 58
-7 51 0 57 3 60 23 3 20 -1 22 -35 21 -21 -1 -48 -4 -61 -7z"/>
<path d="M2880 4270 c0 -6 32 -10 75 -10 43 0 75 4 75 10 0 6 -32 10 -75 10
-43 0 -75 -4 -75 -10z"/>
<path d="M3312 4226 c9 -9 23 -16 30 -16 9 0 14 -17 16 -52 2 -29 7 -55 13
-58 5 -3 25 -4 45 -2 l36 4 -33 30 -34 30 34 -6 c18 -3 38 -6 43 -6 5 0 6 -9
3 -20 -7 -22 -7 -21 44 -26 28 -2 31 0 20 10 -20 19 -184 113 -211 122 -20 6
-21 5 -6 -10z m78 -36 c13 -8 13 -10 -2 -10 -9 0 -20 5 -23 10 -8 13 5 13 25
0z"/>
<path d="M1172 4090 c-18 -16 -35 -30 -40 -30 -4 0 -37 -24 -73 -53 -35 -29
-73 -59 -84 -65 -19 -11 -18 -11 5 -8 14 3 27 6 30 7 9 4 24 7 43 8 10 0 17 7
16 14 -3 25 1 47 10 47 14 0 21 -54 8 -62 -7 -5 -3 -8 11 -8 24 0 26 9 13 57
-6 21 -5 35 2 42 16 16 30 14 23 -4 -4 -10 1 -15 15 -15 11 0 18 4 15 9 -4 5
0 12 6 14 10 4 10 7 0 15 -19 13 6 31 47 34 29 2 30 4 15 15 -24 18 -27 17
-62 -17z"/>
<path d="M3534 4092 c-5 -4 -11 -31 -12 -59 -1 -46 1 -53 18 -53 13 0 20 -7
20 -19 0 -16 9 -20 56 -23 31 -1 58 1 61 5 3 4 11 3 19 -4 10 -8 14 -8 14 0 0
6 5 11 11 11 5 0 7 -4 4 -10 -3 -5 1 -10 10 -10 9 0 38 -19 66 -42 36 -32 47
-48 43 -62 -4 -13 -2 -16 6 -11 9 6 9 3 1 -13 -12 -23 -2 -30 42 -27 27 2 29
0 31 -44 1 -23 26 -44 26 -22 0 6 -4 11 -10 11 -5 0 -10 6 -10 13 1 6 9 2 19
-10 20 -24 31 -29 31 -14 0 18 -299 311 -316 311 -3 0 -29 18 -58 40 -58 44
-56 43 -72 32z m49 -31 c15 -8 27 -18 27 -22 0 -13 -38 3 -57 23 -19 22 -16
22 30 -1z m0 -36 c15 -4 30 -11 33 -16 3 -5 15 -9 27 -9 24 -1 74 -37 64 -46
-3 -4 -13 1 -22 10 -10 9 -33 16 -56 16 -31 0 -46 7 -69 30 -17 17 -30 36 -30
43 1 7 6 5 13 -5 7 -9 25 -20 40 -23z m301 -231 c3 -8 2 -12 -4 -9 -6 3 -10
10 -10 16 0 14 7 11 14 -7z"/>
<path d="M1895 3940 c3 -5 8 -10 11 -10 2 0 4 5 4 10 0 6 -5 10 -11 10 -5 0
-7 -4 -4 -10z"/>
<path d="M1975 3941 c-33 -4 139 -8 383 -9 243 -1 442 1 442 6 0 9 -746 12
-825 3z"/>
<path d="M2810 3937 c0 -9 10 -17 23 -19 12 -2 -48 -3 -133 -2 l-155 2 155 -8
c159 -7 216 -1 150 18 -30 9 -32 10 -9 11 14 1 31 -5 37 -11 10 -10 15 -10 21
1 5 7 11 9 14 4 4 -6 -5 -15 -18 -21 -18 -8 -23 -16 -18 -29 6 -15 4 -16 -9
-5 -12 10 -121 12 -488 12 -315 -1 -477 3 -484 10 -7 7 -7 10 1 10 6 0 14 -6
16 -12 4 -10 6 -10 6 0 1 8 27 13 89 14 l87 2 -100 6 c-55 3 -108 10 -119 14
-16 8 -17 7 -6 -14 9 -16 9 -25 1 -33 -6 -6 -11 -20 -12 -31 0 -21 0 -21 -8
-1 -5 11 -7 23 -4 27 2 4 -3 5 -11 2 -9 -3 -16 -1 -16 5 0 6 -4 11 -10 11 -5
0 -10 -9 -10 -20 0 -11 -5 -20 -11 -20 -8 0 -9 13 -5 40 5 30 3 40 -7 40 -10
0 -16 -23 -21 -86 -7 -101 2 -246 16 -237 6 3 7 -3 4 -15 -4 -12 -2 -24 6 -29
10 -6 13 -45 13 -151 0 -132 2 -145 20 -157 36 -25 46 -37 40 -44 -4 -3 -25
14 -46 38 -43 48 -55 41 -14 -8 l26 -30 -28 2 c-32 3 -31 -8 -18 206 6 93 5
113 -6 109 -20 -7 -27 -72 -28 -239 -1 -169 -8 -159 107 -159 56 0 62 2 62 21
0 19 -5 20 -75 17 -55 -2 -75 0 -75 10 0 8 22 12 76 12 70 0 76 -2 82 -22 5
-21 6 -21 12 -2 4 10 3 27 -2 37 -6 13 -5 17 7 17 12 0 15 -14 15 -75 0 -43
-4 -75 -10 -75 -5 0 -10 9 -10 19 0 11 -4 22 -8 25 -10 6 -14 -74 -4 -88 4 -6
7 -22 7 -35 0 -18 7 -26 25 -29 36 -7 821 -14 845 -8 17 4 20 12 17 51 -3 28
0 45 7 45 6 0 11 -19 11 -46 0 -38 3 -45 18 -42 11 2 17 13 18 31 1 25 1 25
-3 2 -7 -40 -23 -29 -23 15 0 29 4 40 15 40 11 0 15 12 16 43 1 39 2 40 9 12
6 -24 8 -26 9 -7 1 18 7 22 35 22 19 0 38 5 41 10 5 8 11 8 19 1 7 -6 16 -8
19 -4 4 3 7 -14 7 -39 0 -39 -3 -44 -21 -44 -12 1 -23 -5 -25 -12 -1 -7 0 -8
3 -2 9 18 23 11 23 -12 0 -20 1 -21 20 -3 18 16 20 16 20 2 0 -10 -4 -17 -9
-17 -5 0 -12 -7 -15 -15 -3 -9 -1 -15 7 -14 26 3 37 -2 37 -17 0 -9 -5 -12
-12 -8 -8 5 -9 2 -5 -10 4 -10 7 -27 7 -38 0 -19 6 -19 343 -16 313 3 345 5
361 21 16 15 16 26 3 56 -1 2 20 5 48 5 37 1 50 5 51 16 0 9 -1 10 -3 3 -6
-16 -53 -17 -53 -2 0 7 -7 17 -15 23 -9 6 -17 21 -18 33 -2 38 -22 20 -28 -27
l-6 -45 -1 52 c-2 42 1 53 17 58 28 9 71 -12 71 -34 0 -25 20 -38 31 -20 15
24 10 51 -11 56 -15 4 -20 14 -20 39 0 18 5 36 11 39 6 4 8 13 5 21 -3 7 -1
16 4 19 5 3 11 -16 13 -42 2 -27 2 -7 1 42 -1 68 -5 90 -15 91 -8 1 -17 2 -21
3 -4 0 -3 15 2 31 5 18 5 30 -1 30 -5 0 -9 14 -9 30 0 23 4 30 20 30 13 0 20
7 20 20 0 13 -7 20 -20 20 -13 0 -20 -7 -20 -20 0 -13 -7 -20 -20 -20 -13 0
-20 7 -20 19 0 13 -9 20 -28 23 -39 6 -52 0 -52 -23 0 -14 7 -19 30 -19 17 0
30 -5 30 -11 0 -7 -12 -10 -30 -7 -20 3 -30 0 -30 -9 0 -7 5 -13 11 -13 5 0 7
-5 3 -11 -4 -8 -9 -8 -17 0 -7 7 -112 11 -324 11 -282 0 -346 5 -300 23 6 3
-1 6 -16 6 -26 1 -28 -1 -26 -41 1 -24 7 -49 12 -55 6 -9 6 -13 -2 -13 -6 0
-11 -17 -11 -39 0 -41 -16 -56 -47 -44 -11 5 -14 3 -8 -6 5 -8 18 -11 37 -7
18 3 27 2 23 -4 -9 -14 -38 -12 -67 3 -21 10 -23 15 -12 25 10 9 13 42 11 127
l-2 114 22 -21 c20 -19 32 -20 247 -19 138 1 226 -2 226 -8 0 -5 -17 -7 -39
-4 -23 3 -41 1 -45 -6 -5 -8 18 -11 77 -11 l85 0 4 36 c3 29 0 38 -16 44 -12
5 -15 9 -8 9 18 1 15 21 -4 21 -10 0 -14 6 -10 15 7 18 -5 20 -22 3 -9 -9 -15
-9 -24 1 -11 11 -10 12 1 6 10 -6 13 -4 9 7 -8 18 20 36 50 32 18 -3 22 1 22
21 0 21 -5 25 -29 25 -16 0 -32 -6 -34 -12 -4 -10 -8 -9 -16 2 -8 10 -13 12
-18 4 -13 -17 -52 -24 -61 -9 -5 10 -54 14 -192 16 -102 2 -173 3 -157 1 25
-3 40 -32 16 -32 -5 0 -7 -5 -3 -11 5 -8 10 -6 16 5 8 14 31 16 163 16 114 0
154 -3 158 -12 2 -7 14 -13 27 -13 27 0 38 -20 16 -28 -8 -3 -25 4 -38 17 -19
18 -33 22 -85 20 -85 -2 -83 -1 -83 -24 0 -20 24 -24 133 -23 9 0 17 -4 17 -8
0 -8 -127 -11 -153 -3 -9 3 -15 10 -11 15 4 7 -22 10 -70 8 -42 -1 -79 1 -82
4 -3 3 -12 3 -20 0 -9 -3 -12 1 -9 16 2 14 -1 18 -11 14 -8 -3 -14 -9 -14 -15
0 -5 -4 -7 -9 -3 -5 3 -12 -3 -14 -12 -4 -15 -5 -15 -6 2 -1 11 -11 31 -22 45
-20 24 -20 24 -14 3 5 -17 2 -23 -9 -23 -9 0 -16 5 -16 11 0 5 -4 8 -9 4 -6
-3 -14 3 -20 13 -7 14 -6 19 4 19 8 0 11 -5 8 -10 -4 -6 -1 -7 6 -2 8 4 12 25
10 54 -4 62 17 135 37 127 8 -3 14 1 14 9 0 8 5 15 11 15 7 0 9 -10 7 -25 -4
-20 -1 -25 14 -25 12 0 22 9 26 22 l5 22 9 -23 c14 -38 33 -19 32 32 0 55 -9
67 -29 41 -14 -18 -14 -18 -15 9 0 18 -5 27 -16 27 -9 0 -25 9 -35 21 -23 27
-139 40 -139 16z m130 -54 c0 -10 -7 -27 -15 -37 -13 -17 -15 -18 -15 -3 0 9
5 17 10 17 18 0 10 17 -12 28 -23 10 -23 11 5 11 19 1 27 -4 27 -16z m48 -52
c2 -13 -1 -28 -6 -33 -6 -6 -8 0 -5 16 3 15 1 26 -6 26 -6 0 -11 5 -11 11 0
20 25 2 28 -20z m-1120 -43 c6 -18 13 -41 17 -50 4 -11 3 -18 -4 -18 -6 0 -14
18 -17 40 -4 22 -10 40 -15 40 -5 0 -9 5 -9 10 0 23 20 7 28 -22z m-88 -35 c0
-41 -3 -54 -11 -46 -10 10 -3 103 7 103 2 0 4 -26 4 -57z m1020 35 c0 -2 -15
-52 -33 -113 l-33 -110 -367 -3 c-202 -1 -367 -1 -367 0 0 2 -13 50 -30 108
-16 58 -30 108 -30 112 0 5 194 8 430 8 237 0 430 -1 430 -2z m-931 -110 c1
-15 6 -30 13 -34 8 -5 9 2 4 27 -4 21 -3 30 3 24 5 -6 11 -21 13 -35 3 -25
-15 -39 -72 -55 -20 -5 -22 -4 -10 5 12 9 11 10 -7 5 -21 -6 -23 -3 -23 29 0
19 5 38 11 42 8 5 10 -3 7 -24 -2 -17 -1 -29 4 -26 4 3 8 14 8 25 0 11 7 19
16 19 11 0 14 5 10 16 -3 9 -6 20 -6 25 0 6 -4 7 -10 4 -5 -3 -10 -1 -10 4 0
6 5 11 10 11 6 0 10 10 11 23 1 29 27 -48 28 -85z m998 -30 c-3 -8 -6 -5 -6 6
-1 11 2 17 5 13 3 -3 4 -12 1 -19z m-1063 -56 c3 -5 -1 -9 -9 -9 -8 0 -15 4
-15 9 0 4 4 8 9 8 6 0 12 -4 15 -8z m49 -14 c-21 -10 -22 -15 -20 -153 1 -79
-2 -141 -6 -138 -12 7 -7 276 5 291 6 6 18 12 27 11 12 0 10 -3 -6 -11z m90
-30 c3 -13 5 -75 5 -138 l-1 -115 -7 85 -6 85 -2 -81 c-1 -44 -5 -83 -8 -86
-3 -3 -14 -4 -25 -1 -17 5 -19 15 -19 124 0 156 18 157 23 2 l3 -118 2 123 c1
89 5 122 15 123 6 1 -1 5 -18 9 l-30 8 31 1 c25 1 33 -4 37 -21z m917 1 c0 -6
-4 -7 -10 -4 -5 3 -10 -3 -10 -14 0 -12 3 -21 8 -21 4 0 7 -69 7 -152 0 -146
1 -153 23 -172 15 -13 36 -20 65 -20 41 1 41 1 4 -3 -20 -2 -35 -8 -32 -12 2
-5 -21 -8 -52 -8 -33 0 -48 4 -37 8 18 6 18 7 2 14 -22 9 -24 45 -2 45 14 0
16 20 14 168 -1 92 -2 173 -1 180 1 15 21 6 21 -9z m69 -20 c-13 -26 -20 -21
-12 9 3 12 9 19 14 16 5 -3 4 -14 -2 -25z m177 5 c37 4 53 3 49 -4 -3 -5 -34
-10 -69 -10 -49 0 -63 3 -63 15 0 11 4 12 14 3 8 -7 33 -8 69 -4z m303 -1 c10
9 11 8 6 -5 -8 -20 -21 -23 -30 -8 -4 6 -11 8 -16 5 -5 -3 -6 2 -2 11 6 15 7
15 18 1 9 -13 14 -14 24 -4z m-1539 -110 c0 -65 4 -124 9 -132 6 -9 20 -12 40
-9 17 2 31 1 31 -4 0 -4 -21 -8 -46 -8 -37 0 -45 3 -40 15 3 8 1 15 -4 15 -6
0 -10 49 -10 120 0 73 4 120 10 120 6 0 10 -46 10 -117z m523 110 c-13 -2 -35
-2 -50 0 -16 2 -5 4 22 4 28 0 40 -2 28 -4z m494 -25 c-3 -7 -5 -2 -5 12 0 14
2 19 5 13 2 -7 2 -19 0 -25z m123 28 c0 -2 -7 -7 -16 -10 -8 -3 -12 -2 -9 4 6
10 25 14 25 6z m425 -26 c3 -5 1 -10 -4 -10 -6 0 -11 5 -11 10 0 6 2 10 4 10
3 0 8 -4 11 -10z m-1375 -15 c0 -13 41 -15 310 -15 269 0 310 2 310 15 0 11
12 15 45 15 l45 0 0 -222 c0 -123 -4 -229 -8 -236 -7 -9 -93 -12 -398 -10
l-389 3 -3 233 -2 232 45 0 c33 0 45 -4 45 -15z m877 -7 c-3 -8 -6 -5 -6 6 -1
11 2 17 5 13 3 -3 4 -12 1 -19z m543 7 c0 -12 -19 -12 -23 0 -4 9 -1 12 9 8 7
-3 14 -7 14 -8z m-652 -97 l-1 -103 -7 90 c-5 83 -4 115 6 115 2 0 3 -46 2
-102z m162 87 c0 -8 -7 -15 -15 -15 -8 0 -15 7 -15 15 0 8 7 15 15 15 8 0 15
-7 15 -15z m387 -7 c-3 -8 -6 -5 -6 6 -1 11 2 17 5 13 3 -3 4 -12 1 -19z
m-490 -200 c-1 -40 -3 -8 -3 72 0 80 2 112 3 73 2 -40 2 -106 0 -145z m822
161 c-16 -10 -23 -4 -14 10 3 6 11 8 17 5 6 -4 5 -9 -3 -15z m41 -83 c0 -8 -4
-18 -10 -21 -5 -3 -10 -4 -10 -1 0 2 -3 11 -6 20 -4 11 -1 16 10 16 9 0 16 -6
16 -14z m-2 -107 c-11 -7 -11 -9 0 -9 7 0 10 -5 7 -11 -5 -6 -12 -4 -20 8 -12
15 -11 19 3 25 16 6 15 7 0 7 -11 1 -18 9 -18 19 0 34 15 34 28 1 11 -26 11
-33 0 -40z m92 31 c0 -5 -4 -10 -10 -10 -5 0 -10 5 -10 10 0 6 5 10 10 10 6 0
10 -4 10 -10z m-1902 -37 c-10 -2 -28 -2 -40 0 -13 2 -5 4 17 4 22 1 32 -1 23
-4z m1780 -66 c3 -42 1 -47 -17 -47 -18 0 -21 6 -21 51 0 43 3 50 18 47 13 -2
18 -15 20 -51z m-781 17 c-3 -3 -12 -4 -19 -1 -8 3 -5 6 6 6 11 1 17 -2 13 -5z
m-962 -190 l21 -21 -31 1 c-17 0 -32 6 -32 13 0 6 7 9 16 5 10 -3 7 5 -9 24
-27 30 -3 16 35 -22z m785 16 c0 -14 -782 -9 -787 5 -2 7 132 9 392 7 252 -1
395 -6 395 -12z m460 -98 c3 -2 -23 -2 -57 0 -45 3 -64 1 -67 -9 -6 -15 -46
-18 -46 -3 0 20 38 28 100 23 36 -3 67 -8 70 -11z m505 8 c-3 -5 -17 -9 -30
-8 -31 3 -21 18 11 18 14 0 22 -4 19 -10z"/>
<path d="M1851 3654 c0 -11 3 -14 6 -6 3 7 2 16 -1 19 -3 4 -6 -2 -5 -13z"/>
<path d="M1920 3530 c0 -5 5 -10 10 -10 6 0 10 5 10 10 0 6 -4 10 -10 10 -5 0
-10 -4 -10 -10z"/>
<path d="M1920 3496 c0 -8 4 -17 9 -20 5 -4 7 3 4 14 -6 23 -13 26 -13 6z"/>
<path d="M2830 3193 c0 -5 14 -17 30 -26 17 -10 30 -16 30 -13 0 2 -13 14 -30
26 -16 12 -30 18 -30 13z"/>
<path d="M2010 3335 l0 -115 355 0 355 0 -2 108 -2 107 -3 -102 -4 -103 -344
0 -345 0 0 105 0 105 353 3 352 2 -357 3 -358 2 0 -115z"/>
<path d="M2244 3186 c-3 -7 -4 -38 -2 -67 l3 -54 119 0 c89 0 120 3 122 13 1
7 0 8 -3 2 -3 -6 -51 -10 -119 -10 l-114 0 0 59 c0 54 2 60 23 64 l22 4 -23 2
c-12 0 -25 -5 -28 -13z"/>
<path d="M2385 3193 c55 -2 93 -9 98 -16 6 -9 7 -8 4 3 -3 12 -23 15 -98 16
l-94 0 90 -3z"/>
<path d="M3000 3920 c0 -13 7 -20 20 -20 13 0 20 7 20 20 0 13 -7 20 -20 20
-13 0 -20 -7 -20 -20z"/>
<path d="M879 3846 c-48 -47 -69 -74 -57 -73 10 1 18 5 18 9 0 4 7 4 17 1 12
-5 14 -3 8 8 -7 11 -6 12 6 3 20 -16 66 -23 81 -12 10 7 9 8 -4 4 -10 -3 -19
-2 -22 2 -5 9 20 32 28 25 12 -12 6 43 -6 56 -8 8 -8 11 -2 8 7 -4 12 3 12 18
0 14 -1 25 -2 25 0 0 -35 -33 -77 -74z m36 -21 c-20 -20 -29 -25 -38 -16 -8 8
-8 11 2 11 16 0 41 25 41 41 0 10 3 10 11 2 9 -9 4 -18 -16 -38z"/>
<path d="M1848 3903 c7 -3 16 -2 19 1 4 3 -2 6 -13 5 -11 0 -14 -3 -6 -6z"/>
<path d="M2920 3765 c0 -8 2 -15 4 -15 2 0 6 7 10 15 3 8 1 15 -4 15 -6 0 -10
-7 -10 -15z"/>
<path d="M748 3700 c-27 -32 -48 -60 -48 -62 0 -3 7 -5 15 -5 9 0 14 6 11 14
-4 9 5 16 24 20 28 5 43 23 20 23 -5 0 -10 5 -10 10 0 7 8 6 23 -1 20 -11 21
-11 8 4 -11 14 -11 20 -1 32 7 9 11 17 9 19 -2 2 -25 -23 -51 -54z"/>
<path d="M2951 3714 c0 -11 3 -14 6 -6 3 7 2 16 -1 19 -3 4 -6 -2 -5 -13z"/>
<path d="M3990 3687 c0 -9 3 -18 8 -21 4 -2 6 -44 5 -92 -1 -65 2 -90 13 -102
8 -8 18 -11 22 -7 4 4 1 10 -5 12 -13 5 -18 55 -7 66 16 16 34 -8 34 -44 0
-37 2 -39 26 -35 31 6 30 5 39 34 5 17 3 22 -7 20 -7 -1 -26 10 -42 25 -19 17
-24 27 -14 27 8 0 21 -11 28 -25 7 -14 15 -23 18 -20 5 5 -47 88 -89 141 -18
22 -29 31 -29 21z m57 -89 c-4 -9 -6 -7 -6 5 -1 9 -6 17 -11 17 -6 0 -8 -11
-4 -25 4 -15 2 -25 -5 -25 -6 0 -10 16 -9 39 1 38 2 38 21 21 10 -10 17 -24
14 -32z"/>
<path d="M779 3654 c-11 -30 -3 -46 11 -24 10 16 13 50 5 50 -3 0 -10 -12 -16
-26z"/>
<path d="M745 3649 c-10 -15 3 -25 16 -12 7 7 7 13 1 17 -6 3 -14 1 -17 -5z"/>
<path d="M700 3595 c-10 -18 -16 -22 -21 -13 -4 7 -11 9 -16 5 -4 -5 -1 -12 6
-16 8 -6 9 -11 3 -15 -6 -3 -14 -1 -17 5 -5 6 -12 3 -22 -11 -11 -16 -12 -24
-3 -35 6 -8 10 -22 7 -32 -4 -14 -5 -14 -6 4 -2 38 -20 36 -38 -4 -10 -21 -23
-44 -30 -51 -7 -7 -23 -34 -36 -60 -13 -26 -29 -56 -35 -67 -6 -11 -21 -42
-33 -70 -54 -125 -66 -163 -62 -192 3 -17 0 -39 -6 -50 -9 -15 -10 -12 -5 15
10 53 -4 36 -22 -25 -9 -32 -19 -65 -21 -73 -3 -10 1 -8 11 4 9 11 16 29 17
40 1 18 2 18 9 -4 7 -23 8 -24 9 -3 1 12 8 26 17 31 13 7 16 19 12 57 -4 32
-3 43 4 34 6 -10 7 -4 3 17 -4 22 0 41 12 60 19 31 46 44 37 19 -4 -8 -10 -13
-14 -10 -12 8 -17 -21 -19 -103 -1 -71 0 -73 22 -70 20 3 22 9 25 76 2 46 -1
71 -7 68 -5 -3 -10 -34 -10 -67 0 -34 -2 -64 -5 -67 -14 -13 -5 125 9 144 9
12 14 44 15 93 0 41 3 71 7 68 3 -4 17 16 30 43 27 57 36 64 23 19 -10 -35 -4
-59 16 -59 10 0 14 13 14 41 0 28 6 46 17 55 10 7 15 16 11 20 -4 4 -14 1 -23
-6 -20 -16 -19 -1 1 28 11 15 22 21 35 17 14 -5 20 0 25 20 3 14 4 36 2 49 -4
17 -1 23 8 19 15 -6 64 43 64 63 0 20 -5 17 -20 -11z m-76 -121 c3 -8 2 -12
-4 -9 -6 3 -10 10 -10 16 0 14 7 11 14 -7z m-144 -255 c0 -11 -4 -18 -10 -14
-5 3 -7 12 -3 20 7 21 13 19 13 -6z"/>
<path d="M880 3610 c0 -5 -18 -10 -39 -10 -42 0 -51 -11 -51 -59 0 -25 29 -79
30 -55 0 5 -5 15 -12 22 -9 9 -9 12 1 12 7 0 10 4 7 8 -2 4 9 8 26 7 36 0 49
-20 19 -30 -12 -3 -26 -15 -32 -26 -5 -11 -13 -18 -17 -15 -4 3 -9 -6 -10 -20
-1 -13 4 -24 11 -24 9 0 8 -3 -2 -9 -9 -6 -10 -11 -2 -15 7 -5 11 -65 11 -182
0 -132 3 -174 13 -174 7 -1 4 -6 -7 -15 -10 -7 -16 -20 -13 -27 4 -10 6 -10 6
0 1 16 18 15 24 -2 7 -18 -31 -15 -44 4 -8 12 -10 11 -7 -5 3 -16 12 -20 45
-21 42 -2 42 -1 28 19 -16 23 -20 47 -7 47 4 0 8 -10 9 -22 3 -29 35 -56 78
-64 18 -3 36 -13 40 -21 4 -12 3 -13 -8 -5 -8 7 -16 9 -19 6 -10 -9 4 -88 18
-101 15 -16 154 -18 154 -3 0 6 85 10 235 10 150 0 235 4 235 10 0 6 -87 10
-240 10 -150 0 -240 4 -240 10 0 6 91 11 238 12 166 2 236 6 235 14 -1 6 9 10
22 9 18 -2 22 1 18 13 -5 14 -2 13 18 -3 18 -15 20 -16 10 -2 -11 14 -11 17 2
17 8 0 17 -5 19 -11 2 -7 16 -13 31 -15 17 -2 25 1 21 8 -3 5 -15 8 -25 5 -11
-3 -19 -1 -19 4 0 10 31 12 54 3 9 -3 13 -11 9 -17 -3 -6 -1 -7 5 -3 7 4 12
14 12 22 0 8 -4 12 -10 9 -7 -4 -7 3 0 20 15 39 12 76 -7 98 -17 19 -17 20 0
14 14 -5 17 0 16 36 0 36 -2 39 -10 19 -5 -13 -6 -28 -3 -34 3 -5 -3 -4 -14 3
-12 7 -19 16 -17 20 3 3 -8 4 -23 3 -15 -2 -21 -1 -14 2 6 3 12 13 13 22 0 11
2 12 6 4 2 -6 9 -9 15 -6 6 4 14 0 19 -7 6 -9 9 -10 9 -2 0 6 -4 15 -10 18 -6
4 -10 66 -10 154 0 162 -2 168 -57 166 -25 -1 -33 3 -33 16 0 10 -4 20 -9 24
-5 3 -12 19 -16 35 -4 17 -16 36 -28 43 -28 15 -622 18 -622 2 0 -6 109 -10
308 -10 169 0 307 -4 307 -8 0 -5 5 -5 12 -1 8 5 9 0 6 -14 -4 -12 -3 -22 1
-22 8 0 31 -45 31 -60 0 -23 -18 -8 -23 19 -4 18 -14 32 -28 36 -17 6 -19 9
-8 16 18 11 38 11 -308 9 -182 -1 -303 2 -303 8 0 5 -11 7 -25 5 -25 -5 -64
22 -50 35 4 4 10 1 12 -5 5 -15 43 -17 43 -3 0 6 -9 10 -20 10 -11 0 -20 5
-20 10 0 6 -4 10 -10 10 -5 0 -10 -4 -10 -10z m50 -80 c0 -5 -9 -14 -21 -20
-11 -7 -38 -28 -60 -47 -21 -19 -39 -31 -39 -26 0 11 59 63 72 63 4 0 8 7 8
15 0 9 6 12 17 8 11 -4 14 -3 9 5 -4 7 -2 12 3 12 6 0 11 -4 11 -10z m620
-230 l0 -230 -292 -2 c-226 -2 -292 -6 -294 -16 -1 -7 0 -8 3 -2 3 6 132 10
374 10 l370 0 -3 -47 c-3 -41 -6 -48 -25 -51 -16 -2 -23 2 -24 15 -1 15 -2 15
-6 2 -3 -13 -16 -17 -54 -17 -28 0 -49 5 -49 11 0 7 -4 7 -12 -1 -22 -22 -48
-14 -49 16 l-2 27 -4 -27 c-3 -22 -10 -28 -29 -28 -13 0 -24 6 -25 13 0 10 -2
10 -6 0 -2 -7 -16 -13 -29 -13 -19 0 -24 5 -25 28 l-2 27 -4 -27 c-5 -32 -42
-40 -44 -10 -1 16 -2 16 -6 0 -3 -11 -14 -18 -29 -18 -19 0 -24 5 -25 28 l-2
27 -4 -27 c-3 -22 -10 -28 -29 -28 -16 0 -24 6 -25 18 -1 15 -2 15 -6 1 -3
-13 -16 -17 -54 -17 -38 0 -49 4 -50 17 -1 14 -2 13 -6 -1 -3 -11 -14 -18 -29
-18 -19 0 -24 5 -25 28 l-2 27 -4 -28 c-4 -22 -9 -28 -26 -25 -13 2 -23 11
-25 23 -2 17 -9 20 -49 16 l-46 -3 5 30 c2 17 2 31 -1 30 -42 -4 -41 -7 -41
190 0 212 -5 196 85 256 l40 26 292 0 293 0 0 -230z m40 -25 c0 -176 -2 -205
-15 -205 -13 0 -15 29 -15 205 0 176 2 205 15 205 13 0 15 -29 15 -205z m70
-150 c0 -8 -2 -15 -4 -15 -2 0 -6 7 -10 15 -3 8 -1 15 4 15 6 0 10 -7 10 -15z
m58 -37 c6 -6 12 -15 12 -21 0 -7 -4 -7 -12 1 -7 7 -25 12 -40 12 -15 0 -28 4
-28 9 0 12 52 11 68 -1z m-700 -158 c10 -17 9 -20 -12 -26 -28 -7 -46 1 -45
19 0 9 2 9 6 0 5 -14 43 -18 43 -5 0 4 -5 13 -12 20 -7 7 -8 12 -2 12 5 0 15
-9 22 -20z m72 -12 c0 6 5 12 11 12 8 0 8 -5 -1 -15 -13 -16 -30 -11 -30 8 0
7 4 6 10 -3 6 -10 10 -11 10 -2z m73 -1 c3 -8 -6 -12 -23 -12 -16 -1 -26 4
-24 10 6 15 41 16 47 2z m47 6 c-8 -3 -18 -10 -21 -15 -3 -5 -9 -3 -11 4 -4 9
3 14 21 15 14 1 19 -1 11 -4z m103 -6 c4 -10 -7 -13 -37 -14 -25 0 -31 1 -13
4 15 2 27 9 27 14 0 14 17 11 23 -4z m157 -2 c0 -8 -2 -15 -4 -15 -2 0 -6 7
-10 15 -3 8 -1 15 4 15 6 0 10 -7 10 -15z m57 9 c-3 -3 -12 -4 -19 -1 -8 3 -5
6 6 6 11 1 17 -2 13 -5z m48 -16 c6 -4 2 -8 -7 -8 -10 0 -18 7 -18 17 0 9 3
12 8 7 4 -5 12 -12 17 -16z m-151 4 c3 -5 -1 -9 -9 -9 -8 0 -15 4 -15 9 0 4 4
8 9 8 6 0 12 -4 15 -8z"/>
<path d="M974 3401 c-18 -11 -35 -25 -40 -32 -4 -7 7 -3 25 10 48 35 99 38
141 9 19 -13 39 -34 45 -46 5 -12 13 -22 18 -22 4 0 0 14 -8 30 -33 65 -120
89 -181 51z"/>
<path d="M1303 3413 c15 -2 37 -2 50 0 12 2 0 4 -28 4 -27 0 -38 -2 -22 -4z"/>
<path d="M1458 3413 c6 -2 18 -2 25 0 6 3 1 5 -13 5 -14 0 -19 -2 -12 -5z"/>
<path d="M916 3334 c-11 -29 -6 -86 10 -114 19 -31 63 -60 91 -60 11 0 32 -13
48 -30 15 -16 32 -27 37 -24 5 3 15 1 22 -5 10 -8 19 -6 34 8 12 10 22 22 22
26 0 5 -9 0 -19 -9 -11 -10 -25 -15 -31 -11 -14 8 56 85 77 85 18 0 16 -15 -2
-30 -9 -7 -13 -15 -11 -18 8 -7 36 25 36 40 -1 42 -18 37 -74 -18 l-57 -57
-25 24 -24 23 52 53 c56 57 68 62 88 38 7 -9 15 -13 18 -10 7 7 -28 45 -42 45
-6 0 -20 -11 -30 -25 -25 -33 -36 -32 -76 10 -19 19 -40 35 -47 35 -19 0 -16
18 5 23 13 4 12 5 -4 6 -12 0 -24 -5 -27 -13 -6 -15 11 -36 28 -36 6 0 26 -15
44 -34 l34 -35 -29 -26 c-34 -32 -65 -27 -109 16 -26 26 -30 37 -30 84 0 30
-1 55 -1 55 -1 0 -5 -7 -8 -16z"/>
<path d="M1353 3313 c26 -2 68 -2 95 0 26 2 4 3 -48 3 -52 0 -74 -1 -47 -3z"/>
<path d="M1109 3203 l-34 -38 38 34 c34 33 42 41 34 41 -2 0 -19 -17 -38 -37z"/>
<path d="M1129 3184 c-18 -20 -25 -31 -14 -24 18 11 61 60 52 60 -1 0 -19 -16
-38 -36z"/>
<path d="M1327 3213 c18 -2 50 -2 70 0 21 2 7 4 -32 4 -38 0 -55 -2 -38 -4z"/>
<path d="M1468 3213 c7 -3 16 -2 19 1 4 3 -2 6 -13 5 -11 0 -14 -3 -6 -6z"/>
<path d="M1373 3163 c15 -2 37 -2 50 0 12 2 0 4 -28 4 -27 0 -38 -2 -22 -4z"/>
<path d="M1467 3613 c18 -2 50 -2 70 0 21 2 7 4 -32 4 -38 0 -55 -2 -38 -4z"/>
<path d="M1760 3560 c0 -5 5 -10 10 -10 6 0 10 5 10 10 0 6 -4 10 -10 10 -5 0
-10 -4 -10 -10z"/>
<path d="M3505 3530 c-3 -5 -1 -10 4 -10 6 0 11 5 11 10 0 6 -2 10 -4 10 -3 0
-8 -4 -11 -10z"/>
<path d="M838 3523 c-10 -2 -18 -9 -18 -14 0 -13 12 -11 34 6 20 15 16 17 -16
8z"/>
<path d="M1662 3500 c0 -14 2 -19 5 -12 2 6 2 18 0 25 -3 6 -5 1 -5 -13z"/>
<path d="M4130 3493 c0 -6 -3 -20 -6 -30 -7 -17 -6 -17 12 -1 14 14 16 21 6
30 -8 8 -12 9 -12 1z"/>
<path d="M4148 3464 c-3 -2 -1 -24 4 -47 5 -23 9 -95 8 -159 -1 -115 -1 -118
20 -118 21 0 22 4 20 88 -3 120 -4 119 20 97 10 -9 19 -20 18 -24 0 -3 0 -22
1 -41 1 -28 4 -32 12 -20 8 12 9 9 4 -10 -12 -45 -14 -90 -5 -90 6 0 10 5 10
11 0 8 5 7 16 -2 16 -13 44 -21 44 -13 0 11 -85 191 -115 245 -19 33 -35 65
-35 69 0 11 -16 21 -22 14z m41 -94 c0 -10 -3 -8 -9 5 -12 27 -12 43 0 25 5
-8 9 -22 9 -30z m-12 -42 c-3 -8 -6 -5 -6 6 -1 11 2 17 5 13 3 -3 4 -12 1 -19z
m123 -183 c0 -5 -5 -3 -10 5 -5 8 -10 20 -10 25 0 6 5 3 10 -5 5 -8 10 -19 10
-25z"/>
<path d="M631 3414 c0 -11 3 -14 6 -6 3 7 2 16 -1 19 -3 4 -6 -2 -5 -13z"/>
<path d="M3530 3420 c0 -5 16 -10 35 -10 19 0 35 5 35 10 0 6 -16 10 -35 10
-19 0 -35 -4 -35 -10z"/>
<path d="M2961 3378 c0 -33 2 -38 9 -23 8 19 8 19 18 -5 11 -25 11 -25 11 -2
1 12 -5 25 -13 28 -8 3 -12 13 -9 25 3 10 0 19 -6 19 -6 0 -11 -17 -10 -42z"/>
<path d="M620 3356 c0 -19 -6 -36 -12 -39 -7 -2 -10 -8 -6 -12 4 -4 14 0 23 8
17 17 21 77 5 77 -5 0 -10 -15 -10 -34z"/>
<path d="M803 3350 c0 -25 2 -35 4 -22 2 12 2 32 0 45 -2 12 -4 2 -4 -23z"/>
<path d="M527 3313 c-4 -3 -7 -11 -7 -17 0 -6 5 -5 12 2 6 6 9 14 7 17 -3 3
-9 2 -12 -2z"/>
<path d="M2965 3310 c-3 -5 1 -10 9 -10 11 0 16 -10 17 -32 1 -19 3 -25 6 -15
10 40 -15 85 -32 57z"/>
<path d="M4200 3310 c0 -5 5 -10 11 -10 5 0 7 5 4 10 -3 6 -8 10 -11 10 -2 0
-4 -4 -4 -10z"/>
<path d="M793 3215 c0 -55 3 -80 8 -65 9 33 10 110 0 135 -5 11 -8 -17 -8 -70z"/>
<path d="M1770 3239 c0 -5 5 -7 10 -4 6 3 10 8 10 11 0 2 -4 4 -10 4 -5 0 -10
-5 -10 -11z"/>
<path d="M803 3085 c0 -22 2 -30 4 -17 2 12 2 30 0 40 -3 9 -5 -1 -4 -23z"/>
<path d="M4323 3020 c1 -58 4 -94 8 -80 7 24 7 24 8 3 1 -13 6 -23 11 -23 12
0 13 27 1 34 -14 9 -23 74 -12 93 6 12 5 28 -3 48 -12 27 -13 18 -13 -75z"/>
<path d="M3787 3050 c3 -13 0 -20 -8 -20 -9 -1 -8 -4 4 -11 10 -6 20 -9 22 -7
6 6 -7 58 -15 58 -5 0 -6 -9 -3 -20z"/>
<path d="M4340 3025 c1 -11 7 -31 15 -45 9 -18 12 -45 8 -92 -4 -48 -2 -68 6
-68 7 0 11 -27 11 -80 0 -62 3 -80 14 -80 19 0 29 61 16 94 -5 15 -10 35 -9
44 0 9 7 -3 15 -28 8 -25 12 -56 9 -70 -3 -14 2 -50 10 -80 8 -30 15 -70 15
-89 0 -19 3 -32 6 -29 10 11 -8 168 -18 162 -6 -4 -7 2 -3 16 12 36 -14 137
-36 143 -15 4 -19 14 -19 47 0 25 4 39 10 35 7 -4 7 3 0 20 -5 14 -12 40 -15
58 -4 18 -13 39 -21 47 -12 12 -14 12 -14 -5z"/>
<path d="M880 2930 c0 -5 10 -10 23 -10 18 0 19 2 7 10 -19 13 -30 13 -30 0z"/>
<path d="M2198 2933 c111 -2 293 -2 405 0 111 1 20 2 -203 2 -223 0 -314 -1
-202 -2z"/>
<path d="M365 2898 c-4 -15 -5 -33 -2 -40 3 -7 6 1 7 17 1 29 2 29 14 -10 l13
-40 -1 41 c-1 23 -4 40 -8 38 -3 -2 -8 2 -11 8 -2 7 -8 1 -12 -14z"/>
<path d="M4320 2860 c0 -22 5 -40 10 -40 6 0 10 -33 10 -80 0 -47 4 -80 10
-80 6 0 10 33 10 80 0 47 -4 80 -10 80 -5 0 -10 18 -10 40 0 22 -4 40 -10 40
-5 0 -10 -18 -10 -40z"/>
<path d="M1600 2875 c0 -12 16 -15 80 -15 64 0 80 3 80 15 0 12 -16 15 -80 15
-64 0 -80 -3 -80 -15z"/>
<path d="M310 2764 c-13 -70 -19 -131 -16 -153 5 -26 4 -32 -3 -21 -8 11 -11
-7 -11 -65 0 -59 3 -76 11 -65 8 11 9 5 5 -25 -3 -22 -7 -58 -8 -80 -1 -34 -2
-31 -9 20 -5 39 -6 13 -3 -73 4 -121 20 -262 43 -367 20 -92 87 -317 77 -258
-3 15 0 20 11 16 9 -4 13 -19 12 -47 -2 -43 28 -122 97 -252 67 -127 182 -300
192 -290 3 3 -1 12 -7 20 -8 10 -9 16 -1 21 14 9 13 42 -2 48 -7 2 -10 7 -7
11 4 4 21 -6 38 -23 26 -25 31 -38 31 -75 0 -49 9 -62 32 -43 10 9 13 26 10
65 -3 43 -7 52 -23 52 -12 0 -19 7 -19 20 0 18 -5 20 -45 17 -24 -2 -46 1 -48
7 -2 7 -5 7 -10 0 -3 -6 5 -23 19 -39 13 -15 22 -30 19 -33 -9 -9 -50 52 -55
82 -3 17 -11 31 -18 31 -8 0 -20 9 -28 19 -16 23 -19 56 -4 56 6 0 10 -12 10
-26 0 -19 4 -25 15 -20 8 3 16 0 16 -7 1 -7 5 8 9 33 9 55 0 68 -41 62 -20 -3
-35 0 -41 9 -6 10 -7 3 -3 -21 4 -29 -1 -23 -30 34 -19 37 -35 81 -35 97 0 16
-7 32 -17 38 -10 6 -13 11 -7 11 15 0 18 150 3 150 -8 0 -10 -16 -7 -51 3 -28
2 -45 -3 -38 -4 8 -11 10 -15 6 -4 -4 -2 -13 4 -19 7 -7 12 -19 12 -28 -1 -11
-4 -10 -12 5 -8 13 -11 66 -10 153 3 127 2 132 -18 132 -11 0 -20 6 -21 13 -2
22 -17 -38 -18 -73 -2 -41 -15 -25 -24 30 -3 19 -3 29 0 23 10 -27 18 -11 20
40 l1 52 -12 -40 c-11 -34 -13 -37 -19 -19 -4 12 -5 30 -1 40 5 16 4 16 -5 4
-11 -16 -13 62 -11 405 0 119 -2 156 -11 145 -8 -12 -9 -9 -5 12 3 14 3 35 -1
45 -6 15 -9 13 -14 -12 l-7 -30 -1 28 c0 16 4 38 11 50 6 12 11 49 11 82 0 42
2 53 8 35 4 -16 7 7 8 63 1 51 5 87 11 87 6 0 10 9 10 20 0 11 -4 20 -9 20 -5
0 -19 -52 -31 -116z m10 -384 c0 -22 -4 -40 -10 -40 -5 0 -10 18 -10 40 0 22
5 40 10 40 6 0 10 -18 10 -40z m-3 -112 c-3 -7 -5 -2 -5 12 0 14 2 19 5 13 2
-7 2 -19 0 -25z m-8 -100 c0 -42 -2 -48 -9 -30 -8 20 -3 82 6 82 2 0 4 -24 3
-52z m88 -360 c-3 -8 -6 -5 -6 6 -1 11 2 17 5 13 3 -3 4 -12 1 -19z m230 -460
c-3 -7 -5 -2 -5 12 0 14 2 19 5 13 2 -7 2 -19 0 -25z m0 -120 c-3 -7 -5 -2 -5
12 0 14 2 19 5 13 2 -7 2 -19 0 -25z"/>
<path d="M3034 2849 l2 -34 242 -5 c134 -3 247 -1 251 3 12 12 57 16 72 7 17
-11 2 -30 -19 -23 -14 5 -15 3 -4 -8 17 -18 15 -34 -3 -19 -8 6 -20 8 -26 4
-9 -5 -10 -2 -6 9 4 11 1 17 -8 17 -19 0 -30 -21 -15 -30 9 -6 9 -12 -1 -28
-12 -19 -11 -24 5 -39 18 -17 18 -17 7 7 -11 22 -9 22 14 -5 23 -28 40 -54 69
-112 6 -13 19 -23 30 -23 12 0 16 -5 12 -16 -3 -9 -6 -18 -6 -20 0 -2 -11 -4
-25 -4 -24 0 -25 2 -19 35 5 30 4 34 -10 29 -11 -4 -16 0 -16 14 0 12 -5 24
-11 27 -6 4 -8 14 -5 22 3 8 2 12 -3 8 -5 -3 -11 0 -13 7 -2 6 -11 9 -20 6
-22 -9 -23 -84 -1 -92 9 -4 22 -1 29 5 12 9 13 6 8 -22 -4 -19 -11 -38 -17
-44 -7 -7 -8 -7 -4 0 3 6 -2 11 -12 11 -10 0 -18 -9 -19 -23 -1 -17 4 -23 17
-23 10 0 21 7 25 15 6 16 46 21 46 6 0 -5 -10 -12 -22 -14 -13 -3 -1 -4 26 -3
48 2 83 -15 71 -35 -4 -5 0 -6 8 -3 16 6 29 74 15 74 -4 0 -8 -7 -8 -15 0 -8
-7 -15 -15 -15 -19 0 -19 19 0 26 10 4 13 15 10 31 -2 14 -1 22 3 18 4 -3 7
-12 7 -18 0 -7 6 -13 13 -13 24 -3 26 -4 14 -16 -16 -16 -15 -29 0 -26 7 2 14
-7 16 -20 2 -12 0 -22 -5 -21 -26 4 -33 -4 -33 -37 0 -26 -4 -35 -13 -31 -17
6 -21 -54 -8 -112 5 -25 5 -43 0 -47 -5 -3 -7 -9 -5 -13 3 -4 -34 -45 -81 -91
-47 -47 -91 -97 -99 -111 -12 -25 -11 -29 23 -64 25 -26 32 -39 24 -45 -9 -5
-8 -9 4 -13 9 -4 13 -3 10 3 -13 21 7 8 42 -26 25 -25 32 -38 24 -44 -9 -5 -8
-9 4 -13 9 -4 13 -3 10 3 -13 21 7 8 42 -26 25 -25 32 -38 24 -44 -9 -5 -8 -9
4 -13 9 -4 13 -3 10 3 -14 23 9 7 51 -35 24 -25 38 -45 30 -45 -7 0 -19 7 -26
15 -7 8 -16 15 -21 15 -5 0 -9 -7 -9 -15 0 -9 -9 -15 -25 -15 -16 0 -25 6 -25
15 0 9 9 15 24 15 32 0 40 14 19 31 -15 12 -16 12 -10 -5 7 -17 6 -17 -10 -5
-25 20 -32 30 -27 44 3 6 -8 22 -22 35 -24 22 -26 23 -20 5 6 -16 5 -18 -5 -7
-15 14 -33 16 -24 2 3 -5 2 -10 -4 -10 -6 0 -8 15 -6 33 4 27 -1 39 -22 58
-24 22 -25 22 -19 4 6 -16 5 -18 -5 -7 -22 21 -33 13 -13 -9 19 -21 19 -21 -1
-17 -17 3 -20 11 -18 46 1 35 -3 45 -23 58 -13 9 -24 22 -24 29 0 23 -29 25
-35 4 -7 -22 -1 -33 18 -35 7 0 20 -2 30 -2 18 -2 24 -22 6 -22 -15 0 -39 -26
-39 -44 0 -9 11 -16 28 -18 19 -2 28 -9 30 -25 2 -13 8 -23 13 -23 14 0 11
-28 -3 -33 -8 -3 -1 -9 15 -16 15 -6 32 -23 38 -38 7 -16 13 -23 16 -15 6 14
33 16 33 2 0 -5 9 -10 19 -10 13 0 21 -9 26 -30 5 -25 11 -30 36 -30 16 0 29
-5 29 -11 0 -6 12 -10 28 -9 45 3 62 1 62 -10 0 -5 -16 -10 -35 -10 -28 0 -35
-4 -35 -20 0 -11 -4 -20 -10 -20 -5 0 -10 9 -10 20 0 13 -7 20 -20 20 -11 0
-20 5 -20 10 0 6 -4 10 -10 10 -15 0 -12 -77 3 -81 23 -7 255 -4 262 3 10 10
-20 38 -42 39 -15 0 -14 2 5 11 12 6 22 17 22 25 0 18 -15 17 -34 -3 -9 -8
-16 -11 -16 -5 0 6 -9 11 -20 11 -13 0 -18 -5 -14 -15 4 -8 1 -15 -5 -15 -12
0 -14 20 -3 35 12 18 72 57 72 48 0 -5 12 -10 28 -11 15 -1 29 -7 30 -12 8
-22 20 -8 26 30 5 34 10 40 31 40 13 0 27 5 30 10 3 6 17 10 31 10 19 0 24 5
24 24 0 14 5 28 10 31 6 3 10 17 10 30 0 12 7 25 15 29 9 3 15 17 14 33 l-1
28 -9 -30 c-6 -24 -8 -20 -5 23 2 28 0 52 -4 52 -12 0 -20 -28 -20 -66 0 -24
-5 -34 -15 -34 -18 0 -22 76 -4 82 8 3 8 10 -2 25 -7 12 -9 26 -5 30 5 4 11 2
13 -4 8 -22 43 -15 43 7 0 15 -7 20 -29 20 -16 0 -32 -6 -35 -12 -5 -10 -7
-10 -12 0 -3 6 -10 12 -15 12 -5 0 -4 -9 3 -20 11 -17 10 -22 -1 -29 -10 -6
-10 -13 -2 -29 6 -11 -14 4 -44 34 -30 29 -55 57 -55 61 0 4 6 1 13 -7 7 -8
19 -16 27 -18 8 -2 2 8 -14 21 -20 16 -25 26 -18 31 7 4 16 4 22 1 6 -4 8 45
7 130 -2 139 -3 141 -43 136 -6 -1 -11 6 -11 14 0 8 7 15 16 15 14 0 14 2 1
10 -8 5 -10 10 -5 10 15 0 31 -13 38 -30 3 -8 6 0 6 18 1 27 -3 32 -21 33
l-23 0 23 9 c12 5 22 18 22 29 0 14 -5 19 -15 15 -8 -4 -15 -12 -15 -20 0 -8
-7 -14 -15 -14 -8 0 -15 6 -15 13 0 7 -10 17 -22 22 -13 6 -22 17 -20 24 2 8
-3 11 -11 8 -20 -7 -65 44 -58 65 6 16 9 16 35 3 15 -8 33 -15 40 -14 6 0 1 5
-11 11 -13 6 -23 15 -23 20 0 4 -9 8 -20 8 -18 0 -19 5 -13 85 4 61 2 89 -7
100 -8 10 -9 15 -1 15 6 0 9 10 7 23 -3 24 -50 37 -69 18 -11 -11 -12 -16 -18
-78 -2 -25 -6 -30 -16 -21 -8 6 -11 13 -8 16 3 3 0 11 -7 19 -8 10 -8 17 1 26
10 9 11 8 6 -4 -4 -10 -2 -20 3 -23 5 -3 10 6 10 19 0 14 -5 28 -9 31 -5 3 -7
10 -4 15 4 5 -5 9 -19 9 -14 0 -27 4 -30 8 -3 5 -148 11 -322 14 -236 4 -318
9 -324 18 -4 7 -7 -2 -6 -21z m603 -71 c0 -24 -4 -49 -9 -55 -7 -9 -7 -13 1
-13 6 0 16 9 23 20 7 11 17 20 22 20 5 0 7 -3 3 -6 -3 -3 -1 -18 5 -33 6 -14
12 -37 13 -49 3 -23 3 -23 -16 -6 -10 9 -17 19 -15 23 2 3 -2 12 -10 19 -10 9
-14 10 -14 1 0 -8 -7 -6 -18 4 -23 21 -28 21 -35 3 -4 -9 -1 -13 6 -10 16 6
137 -98 155 -132 7 -13 10 -24 7 -24 -7 0 -183 148 -190 161 -4 5 1 12 9 15 9
3 14 10 11 14 -3 4 3 7 12 6 9 0 18 6 20 14 4 13 3 13 -6 0 -16 -23 -13 -2 5
36 9 19 17 34 18 34 1 0 2 -19 3 -42z m89 30 c4 -5 -1 -17 -10 -26 -15 -15
-16 -15 -16 0 0 9 6 19 13 22 6 3 1 4 -13 3 -15 -1 -30 -12 -37 -27 -8 -17
-12 -20 -13 -8 0 9 2 23 5 31 7 16 62 21 71 5z m108 -3 c-3 -8 -12 -11 -20 -8
-20 7 -17 18 5 20 13 1 18 -3 15 -12z m-264 -55 c0 -5 -4 -10 -9 -10 -6 0 -13
5 -16 10 -3 6 1 10 9 10 9 0 16 -4 16 -10z m230 -24 c0 -18 3 -61 6 -95 8 -68
-5 -81 -25 -26 -16 44 -11 155 6 155 8 0 13 -13 13 -34z m-85 4 c-3 -5 -11
-10 -16 -10 -6 0 -7 5 -4 10 3 6 11 10 16 10 6 0 7 -4 4 -10z m21 -32 c4 -13
33 -86 66 -162 32 -77 56 -146 53 -154 -3 -9 -9 -12 -14 -6 -16 18 -141 326
-135 335 9 16 22 10 30 -13z m-195 -51 c-13 -13 -26 -3 -16 12 3 6 11 8 17 5
6 -4 6 -10 -1 -17z m129 -61 c0 -1 -9 -2 -19 -2 -11 0 -17 4 -15 8 3 5 -1 11
-10 14 -8 3 -17 12 -20 20 -3 8 9 3 29 -12 19 -14 35 -27 35 -28z m87 -82 c-9
-9 -28 6 -21 18 4 6 10 6 17 -1 6 -6 8 -13 4 -17z m108 -44 c-8 -13 -34 16
-35 40 0 11 6 9 21 -7 12 -11 18 -26 14 -33z m-55 -66 c0 -15 -6 -24 -15 -24
-12 0 -15 13 -15 58 l1 57 14 -34 c8 -18 15 -44 15 -57z m-50 21 c0 -19 -4
-35 -10 -35 -11 0 -14 53 -3 63 11 12 13 8 13 -28z m128 -20 c-3 -3 -9 2 -12
12 -6 14 -5 15 5 6 7 -7 10 -15 7 -18z m-149 -18 c8 -10 7 -18 -2 -31 -12 -16
-14 -16 -26 -2 -14 16 -9 46 7 46 5 0 15 -6 21 -13z m181 -3 c0 -9 5 -12 13
-8 8 5 7 2 -2 -9 -10 -13 -17 -15 -27 -6 -17 14 -18 23 -2 13 8 -5 9 -2 5 9
-3 10 -2 17 3 17 6 0 10 -7 10 -16z m-137 -57 c7 4 8 0 4 -10 -4 -10 -10 -25
-13 -34 -5 -16 -4 -16 10 1 13 16 17 17 30 4 9 -10 11 -20 5 -29 -7 -11 -9
-10 -9 4 0 10 -5 15 -10 12 -6 -4 -7 -13 -1 -24 8 -15 5 -17 -30 -18 -35 -1
-38 1 -22 13 16 12 16 13 -7 8 l-25 -5 25 15 c14 8 19 15 13 16 -18 0 -16 20
2 20 8 0 15 5 15 11 0 5 -4 8 -9 4 -5 -3 -13 0 -17 6 -4 8 -3 9 4 5 7 -4 12
-1 13 6 0 10 2 10 6 0 2 -6 10 -9 16 -5z m70 -29 c-10 -3 -12 -7 -5 -7 6 -1
12 -6 12 -13 0 -7 -7 -5 -17 6 -13 13 -14 20 -6 23 7 2 10 12 7 21 -5 13 -2
13 10 -3 15 -18 15 -20 -1 -27z m60 8 c4 -10 1 -13 -8 -9 -8 3 -12 9 -9 14 7
12 11 11 17 -5z m-203 -66 c0 -5 -7 -10 -16 -10 -8 0 -12 5 -9 10 3 6 10 10
16 10 5 0 9 -4 9 -10z m186 1 c-5 -8 -56 -3 -56 5 0 2 14 4 31 4 16 0 28 -4
25 -9z m-16 -21 c0 -5 9 -10 20 -10 11 0 20 5 20 10 0 6 5 10 10 10 6 0 10 -7
10 -15 0 -8 -7 -15 -15 -15 -9 0 -18 -8 -22 -17 -12 -34 -25 -44 -39 -32 -12
9 -12 15 -2 28 12 14 11 15 -5 2 -25 -20 -43 -1 -25 28 13 21 48 29 48 11z
m93 -88 c-7 -2 -13 -7 -13 -12 0 -5 6 -10 13 -13 9 -3 9 -9 1 -23 -14 -24 -29
-20 -29 9 0 30 -13 47 -30 40 -10 -3 -15 1 -15 12 0 12 5 15 20 10 14 -4 20
-2 20 9 0 12 5 10 23 -7 14 -14 18 -23 10 -25z m-284 -123 l-60 -59 -32 31
c-21 21 -26 29 -13 25 13 -5 17 -2 13 9 -7 15 9 29 33 30 8 0 15 8 15 18 0 10
9 29 20 41 l20 24 32 -30 31 -30 -59 -59z m236 99 c5 4 5 1 1 -6 -6 -10 -11
-10 -22 -1 -8 6 -14 14 -14 16 0 3 6 0 13 -6 8 -6 18 -7 22 -3z m140 -278
c-10 -11 -20 -18 -23 -16 -5 6 21 35 32 36 5 0 1 -9 -9 -20z m-490 -10 c3 -5
1 -10 -4 -10 -6 0 -11 5 -11 10 0 6 2 10 4 10 3 0 8 -4 11 -10z m505 -15 c0
-9 -9 -15 -22 -14 -17 1 -19 2 -5 6 9 2 17 9 17 14 0 5 2 9 5 9 3 0 5 -7 5
-15z m-445 -45 c3 -5 1 -10 -4 -10 -6 0 -11 5 -11 10 0 6 2 10 4 10 3 0 8 -4
11 -10z m371 -2 c4 -7 3 -10 -1 -5 -5 4 -17 0 -27 -10 -20 -18 -25 -10 -5 12
15 18 24 18 33 3z m-310 -45 c-8 -8 -36 10 -36 25 0 13 3 12 20 -3 11 -10 18
-20 16 -22z m304 13 c0 -7 -9 -16 -20 -19 -11 -3 -20 -1 -20 4 0 5 7 9 15 9 8
0 15 5 15 10 0 6 2 10 5 10 3 0 5 -6 5 -14z m-140 -50 c0 -11 -19 -15 -25 -6
-3 5 1 10 9 10 9 0 16 -2 16 -4z m-30 -23 c0 -5 -17 -9 -37 -10 -26 -1 -33 1
-23 7 18 12 60 13 60 3z m15 -63 c4 -6 10 -8 15 -5 5 3 11 1 14 -4 4 -5 -2 -8
-11 -7 -10 2 -22 -3 -28 -11 -8 -10 -10 -7 -10 12 0 26 9 33 20 15z m-42 -21
c3 -13 1 -19 -6 -16 -15 5 -22 37 -9 37 5 0 12 -9 15 -21z"/>
<path d="M3656 2721 c-3 -5 2 -15 12 -22 15 -12 16 -12 5 2 -7 9 -10 19 -6 22
3 4 4 7 0 7 -3 0 -8 -4 -11 -9z"/>
<path d="M3664 2078 l-19 -23 23 19 c34 29 39 11 6 -21 -16 -16 -38 -40 -49
-53 l-20 -25 24 20 c63 51 89 83 78 94 -16 16 -21 14 -43 -11z"/>
<path d="M3665 2005 c-22 -18 -37 -36 -34 -39 3 -3 23 12 44 34 48 49 44 51
-10 5z"/>
<path d="M4402 2850 c0 -14 2 -19 5 -12 2 6 2 18 0 25 -3 6 -5 1 -5 -13z"/>
<path d="M1595 2830 c-4 -6 25 -10 79 -10 51 0 86 4 86 10 0 6 -33 10 -79 10
-44 0 -83 -4 -86 -10z"/>
<path d="M637 2823 c-10 -10 -8 -41 3 -48 12 -8 53 33 45 45 -7 11 -38 13 -48
3z"/>
<path d="M672 2784 c-28 -28 -42 -50 -39 -62 4 -16 5 -16 6 1 1 22 13 22 31
-2 7 -11 18 -17 23 -14 6 3 7 1 4 -4 -4 -6 -18 -8 -31 -6 -22 5 -25 1 -31 -41
-9 -56 -2 -78 21 -69 12 4 15 2 12 -8 -3 -8 -10 -13 -16 -12 -13 3 -27 -56
-16 -67 5 -4 32 -5 59 -1 48 6 51 5 69 -24 20 -30 21 -35 24 -66 1 -9 9 -16
17 -16 19 0 19 7 -1 22 -14 9 -14 16 -5 33 9 17 9 22 -1 22 -13 0 -73 68 -66
75 1 1 29 -23 60 -54 40 -41 51 -57 38 -57 -11 0 -16 6 -13 16 4 13 3 13 -5 0
-12 -16 -6 -33 9 -25 5 4 9 0 9 -8 0 -16 31 -47 48 -47 20 0 13 17 -8 23 -11
3 -20 10 -20 17 0 16 53 -24 74 -55 9 -14 20 -24 24 -24 4 1 18 0 32 -1 18 -2
20 -4 8 -7 -10 -2 -18 -9 -18 -14 0 -15 28 -10 57 9 15 9 41 17 58 18 75 2 84
5 87 21 3 15 4 15 20 -1 17 -17 18 -16 28 8 5 15 21 31 36 36 24 10 25 11 8
28 -17 16 -17 17 0 20 20 4 19 56 -1 58 -7 1 -24 2 -38 3 -18 1 -25 7 -25 22
0 41 -63 70 -86 40 -9 -12 -16 -7 -39 27 -15 23 -32 39 -37 36 -6 -4 -7 2 -3
16 6 19 4 21 -13 16 -15 -5 -24 -1 -32 14 -6 11 -18 20 -27 20 -16 0 -16 1 -1
16 12 12 14 24 8 46 -5 16 -7 35 -4 43 7 18 -12 28 -42 21 -26 -7 -33 -26 -10
-26 14 0 26 -21 26 -46 0 -22 -17 -17 -23 7 -3 11 -15 23 -27 26 -12 3 -19 11
-16 18 3 9 -3 12 -20 10 -29 -3 -41 -12 -29 -22 4 -5 10 -2 12 5 3 6 10 12 15
12 6 0 8 -3 5 -7 -4 -3 1 -12 11 -20 16 -13 15 -13 -6 -8 -16 5 -30 1 -44 -12
-21 -18 -21 -18 -15 14 5 23 2 33 -9 37 -29 11 -36 6 -32 -19 3 -14 1 -28 -5
-32 -5 -3 -7 -2 -4 4 3 5 -3 16 -14 23 -24 18 -24 27 -1 33 14 4 14 5 -3 5
-11 1 -39 -19 -63 -44z m104 -56 c2 -3 -9 -16 -24 -31 l-27 -26 -1 33 c0 29 3
33 24 30 13 -1 26 -4 28 -6z m203 -92 c95 -96 94 -82 11 -166 -84 -83 -70 -85
-170 15 l-89 89 75 73 c42 40 79 73 83 73 3 0 44 -38 90 -84z m-276 21 c7 3 4
-3 -5 -14 -24 -26 -23 -35 6 -66 13 -14 21 -28 19 -31 -3 -3 -1 -11 5 -19 19
-22 -33 -19 -53 3 -10 11 -13 20 -7 20 6 0 14 -4 17 -10 3 -5 11 -10 16 -10 5
0 -1 18 -13 39 -14 25 -26 36 -33 31 -7 -6 -11 -2 -11 9 0 13 5 17 16 13 11
-4 10 0 -4 17 -16 17 -16 20 -4 16 9 -4 20 -1 24 6 6 10 9 10 12 1 2 -7 9 -9
15 -5z m475 -124 c4 -28 -6 -29 -35 -4 -30 25 -29 33 5 29 19 -2 28 -9 30 -25z
m-11 -65 c-3 -7 -5 -2 -5 12 0 14 2 19 5 13 2 -7 2 -19 0 -25z m30 -15 c-3
-10 -5 -2 -5 17 0 19 2 27 5 18 2 -10 2 -26 0 -35z m73 36 c0 -4 -7 -9 -15
-13 -9 -3 -15 0 -15 8 0 7 7 13 15 13 8 0 15 -4 15 -8z m-38 -51 c-7 -7 -12
-8 -12 -2 0 14 12 26 19 19 2 -3 -1 -11 -7 -17z m-139 -68 c-10 -10 -29 -21
-43 -25 -21 -7 -19 -2 15 31 27 26 41 34 43 25 2 -7 -4 -21 -15 -31z m92 20
c-3 -5 -11 -10 -16 -10 -6 0 -7 5 -4 10 3 6 11 10 16 10 6 0 7 -4 4 -10z m-41
-25 c-4 -8 -8 -15 -10 -15 -2 0 -4 7 -4 15 0 8 4 15 10 15 5 0 7 -7 4 -15z"/>
<path d="M739 2713 c-13 -16 -12 -17 4 -4 9 7 17 15 17 17 0 8 -8 3 -21 -13z"/>
<path d="M810 2819 c0 -5 5 -7 10 -4 6 3 10 8 10 11 0 2 -4 4 -10 4 -5 0 -10
-5 -10 -11z"/>
<path d="M4313 2740 c0 -41 2 -58 4 -37 2 20 2 54 0 75 -2 20 -4 3 -4 -38z"/>
<path d="M1000 2716 c0 -33 16 -42 29 -17 16 29 13 41 -9 41 -15 0 -20 -7 -20
-24z"/>
<path d="M1060 2663 c1 -13 48 -63 60 -63 7 0 10 13 8 33 -3 28 -7 32 -35 35
-18 2 -33 0 -33 -5z"/>
<path d="M1653 2662 c-25 -2 -33 -8 -33 -23 0 -10 -4 -19 -10 -19 -5 0 -10
-13 -10 -30 0 -16 5 -30 11 -30 5 0 8 4 5 9 -9 14 61 18 92 5 24 -10 21 -10
-26 -6 l-53 5 1 -144 c2 -179 3 -170 -16 -134 -10 19 -11 31 -5 33 14 5 15
172 1 172 -5 0 -10 5 -10 11 0 5 5 7 10 4 6 -3 10 1 10 9 0 10 -6 13 -15 10
-17 -7 -20 -30 -5 -39 6 -3 10 -37 10 -75 0 -38 -4 -72 -10 -75 -5 -3 -10 -22
-10 -41 0 -24 4 -33 11 -28 9 5 10 -1 5 -20 l-7 -27 23 20 c21 20 23 20 32 4
5 -10 18 -24 28 -31 20 -14 24 -32 7 -32 -5 0 -8 4 -5 9 3 5 -1 12 -10 15 -24
9 -28 7 -14 -9 16 -19 3 -20 -16 -1 -10 10 -10 16 -2 18 6 2 8 9 4 16 -8 14
-46 -20 -46 -43 0 -11 10 -14 40 -11 22 2 43 -1 46 -5 3 -5 38 -9 77 -8 51 1
65 3 47 9 -25 8 -24 8 5 9 45 2 89 34 113 82 12 24 22 39 22 32 0 -6 3 -20 6
-30 5 -15 4 -15 -5 -3 -8 12 -11 4 -11 -32 0 -44 -14 -66 -22 -35 -2 10 -10 9
-36 -3 l-32 -16 79 -2 c77 -2 79 -1 75 21 -2 12 -2 16 2 10 3 -7 12 -13 20
-13 8 0 14 -7 14 -15 0 -9 9 -15 23 -14 21 0 21 1 2 8 -16 7 -13 9 17 13 21 2
39 0 40 -4 2 -5 2 64 0 153 -3 126 0 164 10 170 10 7 10 9 1 9 -7 0 -13 7 -13
15 0 8 5 15 11 15 5 0 7 -4 4 -10 -3 -5 0 -10 7 -10 8 0 15 12 16 26 2 22 0
25 -13 14 -12 -10 -15 -10 -15 1 0 10 -2 11 -8 2 -4 -7 -13 -9 -21 -4 -7 5
-21 7 -30 6 -9 -1 -11 0 -4 2 17 6 28 72 15 85 -18 18 -42 1 -42 -32 0 -16 -4
-30 -10 -30 -5 0 -10 14 -10 30 0 23 -4 30 -20 30 -16 0 -20 -7 -20 -30 0 -16
-5 -30 -11 -30 -7 0 -9 9 -5 24 9 36 -11 44 -104 40 -47 -2 -88 -4 -92 -4 -5
0 -8 -9 -8 -20 0 -11 -4 -20 -10 -20 -5 0 -10 8 -10 19 0 20 -30 28 -87 23z
m67 -52 c0 -5 -21 -10 -46 -10 -27 0 -43 4 -39 10 3 6 24 10 46 10 21 0 39 -4
39 -10z m100 -30 c0 -11 -4 -20 -10 -20 -5 0 -10 9 -10 20 0 11 5 20 10 20 6
0 10 -9 10 -20z m-67 -20 c-3 -11 -7 -20 -9 -20 -2 0 -4 9 -4 20 0 11 4 20 9
20 5 0 7 -9 4 -20z m117 8 c0 -4 -7 -8 -15 -8 -8 0 -15 4 -15 8 0 5 7 9 15 9
8 0 15 -4 15 -9z m53 5 c-7 -2 -21 -2 -30 0 -10 3 -4 5 12 5 17 0 24 -2 18 -5z
m60 -10 c-6 -15 -6 -15 -27 -7 -24 9 -19 19 8 19 15 0 22 -5 19 -12z m55 -168
c1 -109 -3 -185 -9 -185 -5 0 -9 10 -9 23 0 18 -2 19 -10 7 -8 -13 -10 -12
-11 5 -1 11 0 30 1 43 1 12 -4 22 -10 22 -7 0 -10 -7 -7 -15 4 -8 2 -17 -3
-20 -6 -4 -10 2 -10 12 0 11 -5 24 -11 30 -11 11 -15 220 -5 231 7 6 6 12 16
-133 l8 -110 -2 112 c-1 61 2 106 6 100 8 -13 11 -3 9 26 -2 11 5 17 18 17 12
0 21 5 21 10 0 6 2 10 4 10 2 0 4 -83 4 -185z m-238 121 c0 -17 -35 -22 -45
-6 -3 5 0 18 6 29 10 16 15 17 26 6 7 -8 13 -21 13 -29z m-76 12 c-4 -6 0 -14
7 -19 11 -7 11 -9 1 -9 -10 0 -13 -22 -11 -90 1 -50 -1 -94 -5 -97 -3 -3 -6
49 -6 116 0 80 3 120 10 116 6 -4 7 -11 4 -17z m143 16 c-3 -3 -12 -4 -19 -1
-8 3 -5 6 6 6 11 1 17 -2 13 -5z m-17 -125 c0 -43 -3 -79 -7 -79 -5 0 -6 32
-5 70 2 46 -1 76 -9 86 -10 12 -9 13 5 8 13 -5 16 -21 16 -85z m-70 1 c0 -56
-3 -70 -15 -70 -12 0 -15 14 -15 70 0 56 3 70 15 70 12 0 15 -14 15 -70z m-4
-89 c37 13 54 10 20 -4 -31 -13 -43 -46 -23 -59 8 -5 7 -8 -4 -8 -28 0 -48 32
-37 60 6 14 12 20 15 13 3 -9 12 -9 29 -2z m82 -21 c-5 -17 -19 -35 -30 -41
-29 -16 -34 -3 -5 16 14 9 27 25 30 35 3 11 8 20 11 20 3 0 0 -14 -6 -30z
m-23 0 c-3 -5 -14 -10 -23 -10 -15 0 -15 2 -2 10 20 13 33 13 25 0z m-56 -126
c2 -2 -10 -4 -27 -4 -17 0 -34 4 -37 10 -5 9 53 3 64 -6z"/>
<path d="M2007 2530 c3 -11 7 -20 9 -20 2 0 4 9 4 20 0 11 -4 20 -9 20 -5 0
-7 -9 -4 -20z"/>
<path d="M1994 2410 c0 -52 1 -74 3 -47 2 26 2 68 0 95 -2 26 -3 4 -3 -48z"/>
<path d="M2014 2380 c0 -69 1 -97 3 -62 2 34 2 90 0 125 -2 34 -3 6 -3 -63z"/>
<path d="M1766 2523 c-6 -14 -5 -15 5 -6 7 7 10 15 7 18 -3 3 -9 -2 -12 -12z"/>
<path d="M2453 2662 c-21 -2 -33 -9 -33 -18 0 -33 -27 -44 -104 -44 l-76 0 1
-27 c0 -25 1 -26 9 -8 7 16 9 11 9 -22 1 -43 -18 -72 -20 -31 -1 17 -3 18 -6
6 -5 -21 -68 -25 -77 -5 -3 6 -4 -50 -3 -126 1 -75 -1 -137 -5 -137 -5 0 -9
57 -10 128 l-2 127 -4 -120 c-4 -135 4 -208 21 -202 6 2 13 9 15 17 3 7 0 10
-7 6 -7 -5 -11 1 -11 13 0 12 4 21 9 21 5 0 12 14 16 30 6 29 25 42 25 18 0
-6 3 -9 6 -6 3 4 1 16 -6 27 -13 26 -4 47 14 32 7 -6 16 -8 19 -4 4 3 -1 -12
-9 -35 -11 -27 -21 -39 -30 -35 -10 3 -14 -2 -14 -18 0 -19 2 -21 10 -9 14 21
12 8 -4 -31 -7 -19 -11 -40 -8 -48 2 -7 -2 -18 -9 -23 -10 -7 -7 -7 9 -3 47
13 62 -2 63 -63 l2 -57 7 50 c13 78 12 107 -2 102 -7 -2 -12 -10 -10 -16 1 -6
-2 -11 -8 -11 -15 0 -13 6 19 74 15 33 33 73 39 89 7 15 16 27 21 27 6 0 1
-16 -10 -35 -20 -34 -21 -53 -2 -101 4 -12 3 -15 -5 -10 -7 4 -12 2 -12 -3 0
-6 5 -11 10 -11 6 0 10 -15 10 -34 0 -19 4 -36 9 -38 6 -1 11 -26 12 -55 2
-47 4 -51 21 -42 14 8 18 6 18 -8 1 -17 1 -17 14 0 7 9 22 17 33 17 11 0 28 9
38 20 10 11 20 18 24 16 3 -2 6 15 6 39 0 24 -2 42 -6 39 -4 -2 -14 11 -23 29
-8 17 -16 25 -16 17 0 -12 -3 -11 -11 3 -5 9 -17 17 -24 17 -8 0 -15 7 -15 15
0 8 -9 15 -20 15 -13 0 -20 7 -20 20 0 29 38 27 42 -2 2 -15 10 -23 22 -23 11
0 21 -6 24 -13 2 -6 8 -12 12 -12 5 0 0 16 -11 35 -12 19 -19 42 -15 50 3 8 1
17 -4 20 -6 4 -10 1 -10 -4 0 -6 -5 -11 -11 -11 -6 0 -8 9 -3 23 9 31 14 34
24 17 6 -10 9 20 8 85 l-2 100 -3 -82 c-3 -74 -6 -83 -23 -83 -17 0 -18 2 -4
28 7 15 14 34 13 42 0 8 -8 0 -16 -17 -9 -18 -20 -33 -25 -33 -13 0 -9 9 18
46 40 52 22 51 -21 -2 -30 -36 -35 -48 -24 -55 10 -6 8 -8 -8 -7 -18 2 -20 6
-12 26 5 14 13 30 17 36 3 6 8 20 9 30 2 11 6 22 10 25 3 3 3 -4 0 -16 -3 -13
-1 -23 3 -23 13 0 18 22 12 57 -4 29 -2 32 17 28 11 -2 21 1 21 6 0 6 5 7 10
4 6 -3 10 -1 10 4 0 6 -5 11 -11 11 -5 0 -7 4 -4 10 3 5 0 7 -7 5 -9 -4 -14 2
-14 13 0 10 6 19 13 19 7 0 10 -4 7 -9 -3 -4 0 -8 5 -8 6 0 11 4 11 9 0 12 54
19 79 9 12 -4 21 -14 21 -23 0 -8 4 -15 9 -15 4 0 6 -43 3 -95 -4 -80 -2 -96
11 -101 9 -3 13 -12 10 -20 -3 -8 -9 -11 -14 -8 -10 6 -12 -9 -2 -19 3 -4 12
1 20 11 13 15 14 14 8 -11 -5 -26 -5 -27 14 -10 14 12 17 20 10 29 -7 8 -2 14
18 19 16 5 31 8 36 7 4 -1 7 34 7 79 0 51 -4 78 -10 74 -7 -4 -7 2 -1 18 6 14
7 28 4 31 -4 3 -2 6 4 6 7 0 12 -44 12 -124 2 -117 0 -126 -21 -145 -25 -24
-82 -28 -102 -8 -21 21 -28 50 -14 59 10 6 10 8 1 8 -10 0 -13 30 -13 115 l0
115 -40 0 -40 0 0 -139 c0 -127 2 -141 23 -171 37 -55 67 -71 129 -71 68 0
109 19 137 64 18 30 21 50 21 151 0 64 3 116 8 116 4 0 7 -39 6 -87 l-1 -88 4
78 4 77 28 -2 c21 -1 33 -11 48 -39 11 -21 15 -35 9 -33 -7 3 -11 -12 -11 -41
0 -24 -4 -46 -10 -47 -10 -3 -9 60 2 96 3 12 1 16 -6 12 -7 -5 -9 -1 -5 8 3 9
2 16 -4 16 -8 0 -14 -66 -13 -150 0 -25 0 -25 -9 -2 -14 34 -22 26 -16 -15 l6
-38 -11 34 c-5 18 -13 31 -16 28 -8 -8 7 -67 18 -67 5 0 9 -4 9 -10 0 -18 -19
-10 -25 11 -7 21 -7 21 -24 -5 -10 -14 -16 -39 -15 -56 2 -36 -6 -43 -38 -31
l-23 9 28 11 c15 6 27 13 27 16 0 3 -14 -1 -31 -8 -17 -7 -31 -16 -30 -20 1
-4 -7 -15 -16 -26 -18 -18 -18 -17 -35 3 -12 15 -26 20 -52 18 -20 -2 -36 2
-36 8 0 5 -5 10 -11 10 -5 0 -7 -5 -3 -11 5 -8 1 -8 -14 0 -27 14 -27 14 -29
-8 -1 -14 4 -19 18 -16 17 4 19 -2 19 -76 0 -51 -4 -79 -11 -79 -6 0 -9 7 -5
15 6 17 -2 19 -22 6 -11 -6 -10 -10 4 -15 20 -8 10 -21 -26 -31 -24 -7 -24 -7
-5 8 19 15 19 15 -7 14 -14 -1 -24 -5 -22 -9 3 -4 -3 -11 -12 -16 -20 -11 -10
-32 14 -31 14 0 13 2 -3 9 -22 9 -13 13 23 10 13 -1 29 4 37 10 8 6 20 8 26 4
7 -4 9 -3 6 3 -4 6 5 15 18 21 24 11 36 0 15 -13 -6 -4 -8 -10 -5 -15 3 -5 -2
-13 -10 -17 -11 -7 -5 -9 21 -10 34 -1 35 0 16 15 -18 15 -18 16 0 34 10 10
26 17 36 16 10 -2 17 3 17 12 0 10 -12 16 -32 18 -21 2 -33 9 -33 18 0 16 36
19 45 4 3 -5 12 -10 18 -10 7 0 6 4 -3 10 -8 5 -11 12 -7 16 4 4 1 14 -6 23
-11 14 -10 14 6 2 19 -15 24 -2 5 17 -7 7 -9 12 -4 12 4 0 23 -16 41 -36 19
-20 39 -33 45 -29 5 3 10 -1 10 -9 0 -9 -7 -16 -16 -16 -8 0 -12 5 -9 10 4 7
-3 8 -22 4 -36 -9 -35 -7 -18 -31 12 -17 23 -21 51 -18 44 4 56 19 50 62 -3
21 0 33 10 37 16 6 19 36 3 36 -5 0 -7 -5 -3 -11 7 -12 -12 -29 -33 -29 -7 0
-13 7 -13 15 0 8 6 12 13 9 18 -6 39 35 40 78 1 31 3 34 16 21 11 -12 12 -16
1 -23 -7 -4 -10 -14 -8 -21 3 -9 10 -7 26 9 12 12 22 19 22 15 0 -13 -14 -30
-28 -34 -21 -7 -20 -163 1 -167 23 -5 27 9 29 97 1 45 5 78 10 75 5 -4 7 -13
4 -21 -3 -8 -1 -11 5 -8 5 4 7 16 3 27 -5 18 -3 20 35 14 27 -4 40 -2 36 5 -4
5 -1 17 7 26 7 9 27 40 44 70 l30 54 13 -28 c7 -15 12 -30 11 -32 -1 -2 2 -7
7 -10 5 -3 19 -23 32 -43 20 -33 27 -38 61 -38 21 0 44 -2 52 -3 7 -2 10 -2 6
0 -5 3 -8 11 -8 18 0 7 -4 15 -9 17 -4 2 -22 25 -39 53 -30 49 -33 71 -6 61 8
-3 14 -1 14 4 0 6 -13 10 -30 10 -34 0 -55 27 -38 51 8 11 9 10 4 -4 -3 -10
-2 -16 3 -13 5 3 11 18 14 33 3 16 12 37 20 48 13 17 17 18 33 5 18 -14 18
-14 1 6 -17 20 -16 22 8 48 31 33 32 46 3 47 -18 1 -19 2 -5 6 29 8 8 23 -32
23 -31 0 -41 -6 -61 -32 -13 -18 -32 -39 -42 -46 -19 -14 -26 -38 -7 -26 8 5
8 1 0 -14 -6 -11 -11 -24 -11 -29 1 -4 9 8 20 27 14 26 19 30 19 15 0 -19 -20
-55 -32 -55 -3 0 -22 29 -42 65 l-36 65 -57 2 -57 2 51 3 c51 4 52 5 58 41 6
42 -6 61 -27 43 -10 -8 -22 -8 -39 -2 -31 12 -44 3 -53 -32 -4 -16 -14 -27
-24 -27 -12 0 -13 2 -3 9 8 4 12 19 10 32 -2 17 -9 24 -25 23 -124 -4 -123 -3
-123 -24 0 -16 -7 -20 -30 -20 -23 0 -30 5 -30 19 0 20 -30 28 -87 23z m267
-12 c0 -5 -10 -10 -22 -10 -19 0 -20 2 -8 10 19 13 30 13 30 0z m140 -41 c0
-5 -4 -9 -10 -9 -5 0 -10 7 -10 16 0 8 5 12 10 9 6 -3 10 -10 10 -16z m-340 1
c0 -5 -21 -10 -46 -10 -27 0 -43 4 -39 10 3 6 24 10 46 10 21 0 39 -4 39 -10z
m200 0 c0 -5 -18 -10 -41 -10 -37 0 -40 -2 -35 -22 3 -13 3 -17 0 -10 -12 25
-24 11 -24 -28 0 -22 -4 -40 -10 -40 -6 0 -10 -33 -10 -80 0 -44 -4 -80 -9
-80 -5 0 -11 36 -13 80 -2 59 0 80 10 80 8 0 12 16 12 45 0 25 6 52 13 60 14
16 107 21 107 5z m-394 -52 c-8 -13 -26 -54 -41 -92 -14 -39 -27 -71 -28 -73
-2 -1 -3 17 -3 42 1 24 4 39 7 33 4 -7 9 -6 15 3 4 7 3 14 -3 16 -5 2 -8 16
-5 31 l6 27 7 -30 c6 -28 7 -28 8 -4 0 14 10 35 21 47 27 28 34 28 16 0z m364
18 c0 -2 -7 -6 -15 -10 -8 -3 -15 -1 -15 4 0 6 7 10 15 10 8 0 15 -2 15 -4z
m37 -2 c-3 -3 -12 -4 -19 -1 -8 3 -5 6 6 6 11 1 17 -2 13 -5z m43 -10 c0 -8 6
-11 13 -8 8 3 31 -21 59 -63 74 -112 73 -105 37 -163 -18 -29 -35 -47 -42 -43
-6 4 -8 1 -5 -8 3 -9 -1 -24 -11 -35 -9 -10 -15 -17 -14 -15 1 2 -2 11 -6 20
-6 10 -4 23 5 35 10 14 10 24 3 40 -10 20 -10 20 5 2 9 -11 16 -14 16 -7 0 7
5 9 10 6 6 -3 10 0 10 7 0 9 3 9 10 -2 7 -12 11 -8 16 17 4 18 10 30 15 27 5
-3 9 -3 9 1 0 11 -82 135 -88 134 -24 -4 -42 3 -42 16 0 10 -6 12 -17 8 -16
-6 -16 -5 -4 10 9 11 10 17 2 17 -6 0 -11 4 -11 8 0 5 7 9 15 9 8 0 15 -6 15
-13z m290 13 c0 -2 -11 -18 -25 -37 -14 -19 -25 -28 -25 -20 0 8 10 24 22 37
20 22 28 27 28 20z m-483 -59 c-3 -8 -6 -5 -6 6 -1 11 2 17 5 13 3 -3 4 -12 1
-19z m-180 6 c-3 -3 -12 -4 -19 -1 -8 3 -5 6 6 6 11 1 17 -2 13 -5z m-159 -87
c4 6 7 -8 7 -32 0 -24 -3 -41 -7 -39 -3 2 -9 -2 -11 -8 -3 -7 -5 21 -5 62 1
41 3 60 5 41 3 -19 8 -30 11 -24z m-58 -112 c0 -8 -2 -15 -4 -15 -2 0 -6 7
-10 15 -3 8 -1 15 4 15 6 0 10 -7 10 -15z m138 -49 c-1 -14 -6 -22 -11 -19 -8
5 -4 -16 11 -56 3 -8 1 -12 -5 -8 -16 10 -22 58 -10 84 13 29 17 29 15 -1z
m62 -100 c0 -2 -13 -6 -29 -8 -17 -2 -28 -1 -25 4 5 8 54 12 54 4z m38 -58
c19 -19 14 -56 -9 -68 -27 -15 -49 -6 -49 20 0 28 20 26 21 -2 l0 -23 10 23
c5 13 13 21 17 18 5 -3 9 1 9 9 0 8 -4 12 -9 9 -4 -3 -8 1 -8 8 0 8 -3 9 -8 3
-12 -16 -32 -16 -32 0 0 18 41 20 58 3z m138 5 c-15 -4 -16 -7 -5 -14 11 -7
11 -9 -3 -9 -10 0 -18 7 -18 15 0 9 9 15 23 14 19 -1 19 -2 3 -6z m114 -3 c0
-5 -2 -10 -4 -10 -3 0 -8 5 -11 10 -3 6 -1 10 4 10 6 0 11 -4 11 -10z"/>
<path d="M2792 2526 c7 -8 15 -12 17 -11 5 6 -10 25 -20 25 -5 0 -4 -6 3 -14z"/>
<path d="M2836 2307 c-16 -12 -16 -14 -3 -14 9 0 18 6 21 14 3 7 4 13 3 13 -2
0 -11 -6 -21 -13z"/>
<path d="M2813 2265 c0 -8 4 -12 9 -9 5 3 6 10 3 15 -9 13 -12 11 -12 -6z"/>
<path d="M3050 2662 c-6 -2 -10 -12 -10 -23 0 -16 7 -19 46 -19 52 0 88 -24
63 -42 -10 -7 -7 -8 11 -3 23 6 24 5 7 -9 -13 -10 -15 -16 -7 -21 7 -4 9 -17
6 -29 -5 -19 -4 -20 8 -3 7 9 17 17 21 17 4 0 4 -8 0 -17 -5 -14 -3 -15 5 -7
8 8 9 18 2 30 -5 11 -7 34 -5 52 5 27 2 32 -16 32 -14 0 -21 6 -21 19 0 16 -9
20 -50 23 -28 1 -55 2 -60 0z m25 -12 c3 -5 -1 -10 -10 -10 -9 0 -13 5 -10 10
3 6 8 10 10 10 2 0 7 -4 10 -10z"/>
<path d="M2240 2640 c0 -18 7 -20 80 -20 73 0 80 2 80 20 0 18 -7 20 -80 20
-73 0 -80 -2 -80 -20z"/>
<path d="M4421 2594 c0 -11 3 -14 6 -6 3 7 2 16 -1 19 -3 4 -6 -2 -5 -13z"/>
<path d="M2914 2568 c-4 -7 -4 -10 1 -6 9 9 35 -9 35 -24 0 -6 -7 -5 -15 2
-20 16 -19 11 5 -36 15 -30 19 -33 14 -12 -5 23 0 32 25 54 18 15 29 29 26 32
-2 3 -14 -3 -26 -14 -19 -17 -21 -18 -30 -1 -12 20 -25 22 -35 5z"/>
<path d="M4401 2560 c0 -14 4 -34 9 -45 7 -17 9 -16 9 10 0 17 -4 37 -9 45 -8
12 -10 10 -9 -10z"/>
<path d="M3845 2540 c-3 -5 1 -10 9 -10 8 0 18 -9 21 -21 5 -15 10 -17 20 -9
9 8 14 8 17 0 2 -7 11 -8 28 -2 23 9 23 9 -12 16 -20 3 -41 13 -48 21 -14 17
-26 19 -35 5z"/>
<path d="M4433 2485 c0 -33 2 -45 4 -27 2 18 2 45 0 60 -2 15 -4 0 -4 -33z"/>
<path d="M2521 2514 c0 -11 3 -14 6 -6 3 7 2 16 -1 19 -3 4 -6 -2 -5 -13z"/>
<path d="M3124 2521 c4 -5 0 -11 -6 -14 -7 -2 -10 -8 -5 -12 4 -5 16 1 27 13
l21 22 -21 0 c-12 0 -19 -4 -16 -9z"/>
<path d="M3963 2490 c-7 -11 -13 -24 -13 -30 0 -16 30 -12 36 5 4 8 11 12 16
9 6 -4 8 2 6 12 -5 26 -31 28 -45 4z"/>
<path d="M725 2480 c3 -5 8 -10 11 -10 2 0 4 5 4 10 0 6 -5 10 -11 10 -5 0 -7
-4 -4 -10z"/>
<path d="M2377 2483 c-12 -12 -7 -22 8 -17 8 4 15 10 15 15 0 11 -14 12 -23 2z"/>
<path d="M4453 2455 c0 -22 2 -30 4 -17 2 12 2 30 0 40 -3 9 -5 -1 -4 -23z"/>
<path d="M4402 2410 c1 -66 2 -69 7 -30 6 42 7 40 16 -40 5 -47 10 -77 13 -67
6 26 -18 190 -29 202 -5 5 -8 -19 -7 -65z"/>
<path d="M720 2450 c0 -5 8 -6 17 -3 12 5 15 2 10 -10 -3 -9 -2 -17 3 -17 6 0
10 9 10 20 0 13 -7 20 -20 20 -11 0 -20 -4 -20 -10z"/>
<path d="M3097 2443 c6 -16 5 -17 -13 -3 -15 11 -16 11 -7 0 7 -8 20 -15 28
-16 12 -2 13 2 5 17 -13 24 -22 25 -13 2z"/>
<path d="M807 2379 c-9 -6 -17 -19 -17 -30 0 -15 6 -19 28 -17 24 2 28 6 24
25 -6 29 -13 34 -35 22z m23 -19 c0 -5 -7 -10 -16 -10 -8 0 -12 5 -9 10 3 6
10 10 16 10 5 0 9 -4 9 -10z"/>
<path d="M1240 2376 c-18 -22 -5 -48 22 -44 17 2 23 10 23 28 0 29 -26 38 -45
16z"/>
<path d="M895 2362 c-18 -13 -15 -32 5 -32 11 0 20 5 20 10 0 6 -5 10 -11 10
-5 0 -7 5 -4 10 7 12 4 13 -10 2z"/>
<path d="M861 2344 c0 -11 3 -14 6 -6 3 7 2 16 -1 19 -3 4 -6 -2 -5 -13z"/>
<path d="M2206 2327 c3 -10 9 -15 12 -12 3 3 0 11 -7 18 -10 9 -11 8 -5 -6z"/>
<path d="M2623 2333 c-7 -3 -13 -13 -13 -24 0 -10 -4 -19 -10 -19 -5 0 -10 -4
-10 -10 0 -15 12 -12 39 9 17 13 21 22 15 33 -5 8 -15 13 -21 11z"/>
<path d="M3110 2325 c-10 -12 -15 -13 -28 -3 -13 11 -14 10 -3 -9 7 -14 17
-20 27 -16 13 5 15 2 10 -15 -6 -16 0 -28 20 -47 15 -14 30 -23 33 -19 3 3 -2
11 -12 18 -12 9 -17 27 -17 60 0 48 -9 57 -30 31z"/>
<path d="M3180 2300 c0 -22 5 -40 10 -40 6 0 10 18 10 40 0 22 -4 40 -10 40
-5 0 -10 -18 -10 -40z"/>
<path d="M4442 2200 c-8 -80 -14 -155 -15 -167 -1 -11 -5 -19 -9 -16 -11 6
-10 -39 1 -55 10 -16 15 14 31 173 7 61 10 133 8 160 -2 34 -7 4 -16 -95z"/>
<path d="M2963 2287 c1 -14 5 -23 10 -20 11 7 8 -10 -9 -37 -11 -19 -14 -20
-10 -5 3 11 2 26 -3 34 -7 11 -13 7 -27 -15 -10 -16 -23 -32 -29 -36 -6 -5 -5
-11 5 -17 19 -13 32 -3 25 18 -3 10 1 23 9 30 11 9 13 7 12 -16 -1 -16 -5 -34
-9 -40 -5 -8 -4 -14 2 -14 6 -1 17 -2 24 -3 8 -1 13 -25 15 -76 3 -80 12 -101
36 -81 9 7 24 10 37 6 16 -5 19 -4 14 6 -5 7 3 4 17 -7 25 -19 25 -19 5 -36
-23 -21 -33 -22 -42 -8 -4 6 -3 10 2 9 19 -3 33 2 33 12 0 6 -6 9 -14 6 -8 -3
-17 -1 -20 6 -3 9 -5 9 -5 0 -1 -7 -8 -10 -16 -7 -18 7 -20 -7 -2 -25 10 -10
8 -11 -8 -5 -11 4 -27 16 -36 26 -9 10 -19 15 -22 11 -4 -3 1 -12 11 -19 16
-12 16 -13 -1 -26 -17 -13 -17 -14 3 -15 11 -1 18 2 15 8 -4 5 -1 9 4 9 6 0
11 -3 11 -8 0 -4 26 -7 57 -7 l58 0 3 116 3 115 -41 -2 c-23 -1 -44 -5 -48 -9
-4 -4 5 -5 21 -1 27 6 27 6 27 -40 l0 -47 -34 44 c-19 25 -29 47 -24 50 6 4 5
9 -2 14 -7 4 -16 2 -21 -6 -4 -7 -12 -10 -16 -5 -4 5 -2 11 5 13 6 3 12 12 12
20 0 11 6 8 19 -8 11 -13 22 -21 25 -18 3 3 -2 14 -12 25 -10 10 -30 39 -44
63 -22 37 -26 40 -25 18z m37 -54 c-1 -11 -50 -70 -50 -60 0 14 34 67 42 67 4
0 8 -3 8 -7z m48 -194 c-7 -5 -17 2 -25 18 -19 37 -16 40 12 13 18 -17 22 -26
13 -31z"/>
<path d="M975 2280 c12 -5 14 -9 6 -9 -8 -1 -12 -4 -8 -7 8 -8 47 5 47 17 0 5
-15 9 -32 8 -28 0 -30 -2 -13 -9z"/>
<path d="M4401 2278 c1 -7 5 -24 9 -38 8 -24 8 -24 9 7 1 17 -3 35 -9 38 -5 3
-10 0 -9 -7z"/>
<path d="M2420 2265 c0 -8 4 -15 10 -15 5 0 7 7 4 15 -4 8 -8 15 -10 15 -2 0
-4 -7 -4 -15z"/>
<path d="M3648 2253 c7 -3 16 -2 19 1 4 3 -2 6 -13 5 -11 0 -14 -3 -6 -6z"/>
<path d="M1064 2223 c-10 -16 -18 -38 -19 -50 -1 -36 -19 -46 -40 -23 -10 11
-13 20 -7 20 6 0 16 -8 21 -17 9 -16 11 -14 11 15 0 4 -3 7 -7 7 -5 0 -13 3
-19 7 -13 8 -41 5 -51 -7 -4 -4 -2 -5 5 -1 15 9 16 -6 0 -22 -7 -7 -8 -12 -2
-12 6 0 10 -10 9 -22 -1 -20 -7 -23 -38 -22 -21 1 -38 -2 -38 -5 -1 -3 -3 -16
-4 -28 -4 -36 -24 -54 -46 -43 -23 13 -39 -13 -35 -53 4 -29 -12 -38 -56 -33
-16 2 -28 -1 -28 -5 0 -5 9 -9 20 -9 11 0 20 -4 20 -10 0 -5 7 -7 16 -3 14 5
15 3 4 -16 -9 -17 -9 -26 1 -37 7 -9 8 -14 1 -14 -6 0 -14 11 -19 24 -6 18
-12 22 -28 15 -13 -5 -15 -8 -5 -8 8 -1 24 -16 34 -34 20 -33 22 -38 25 -72 2
-20 2 -20 16 -1 8 11 11 22 6 25 -5 3 -3 12 5 19 15 14 18 7 15 -28 -2 -22 45
-64 63 -57 9 4 18 2 21 -4 4 -5 3 -9 -2 -8 -25 4 -53 -3 -67 -17 -9 -8 -22
-13 -29 -11 -9 4 -9 6 1 6 6 1 12 5 12 11 0 5 -7 7 -15 4 -17 -7 -21 -54 -5
-54 14 0 12 -27 -2 -33 -8 -3 -1 -9 15 -16 15 -6 32 -23 38 -38 7 -16 13 -23
16 -15 6 14 33 16 33 2 0 -5 12 -10 28 -9 15 0 21 3 15 6 -15 6 -17 33 -3 33
6 0 10 -6 10 -12 0 -9 3 -9 9 1 5 8 20 15 33 16 16 1 23 8 23 23 0 12 3 21 7
19 3 -1 24 17 46 40 28 28 46 40 59 37 11 -3 25 2 32 10 8 9 19 16 25 16 6 0
3 -5 -6 -11 -10 -5 -18 -14 -18 -19 0 -13 47 -13 55 0 4 6 13 5 25 -2 25 -16
46 2 35 29 -12 28 -14 44 -4 37 12 -7 11 33 -1 57 -9 16 -7 21 11 28 13 4 18
10 12 14 -6 4 -25 -7 -42 -25 -33 -33 -39 -48 -20 -48 7 0 0 -9 -14 -20 -33
-26 -47 -26 -16 0 13 10 20 19 14 19 -14 0 -41 -21 -48 -39 -4 -12 -6 -12 -6
2 -1 9 4 20 9 23 6 4 7 11 4 17 -5 7 -2 8 5 3 15 -9 84 62 74 78 -4 6 -1 7 7
2 7 -4 16 -2 21 6 8 12 11 12 19 -1 5 -8 15 -16 22 -16 7 -1 18 -3 23 -4 6 -1
26 -2 45 -3 33 -2 35 -4 38 -39 3 -30 7 -38 23 -38 16 0 19 7 19 41 0 53 23
48 31 -7 4 -25 7 -30 8 -14 1 14 4 35 7 48 5 18 3 21 -10 16 -13 -5 -16 1 -16
35 0 30 -4 41 -15 41 -9 0 -25 9 -37 20 l-22 20 33 0 c28 0 70 24 60 35 -3 2
-40 5 -84 6 -67 2 -82 6 -96 23 -10 12 -21 17 -26 13 -4 -5 0 -13 10 -18 9 -6
15 -14 12 -18 -2 -5 2 -14 10 -21 25 -21 17 -32 -9 -13 -13 10 -22 23 -20 28
6 16 -34 55 -50 49 -10 -4 -12 5 -9 40 5 43 3 46 -19 46 -18 0 -20 2 -8 10 12
7 11 10 -5 16 -11 4 -23 9 -27 11 -4 2 -10 -2 -14 -8 -4 -7 -3 -9 3 -6 5 3 10
0 10 -8 0 -8 -3 -13 -5 -10 -3 3 -12 -1 -21 -7 -13 -10 -14 -10 -4 2 9 10 10
17 2 27 -14 17 -42 17 -34 1 4 -7 0 -5 -8 5 -8 9 -20 17 -27 17 -7 0 -19 -8
-26 -17 -12 -17 -13 -17 -14 -1 0 9 6 21 13 25 6 4 18 16 26 26 11 14 11 17
-2 17 -8 0 -23 -12 -33 -27z m55 -56 c6 -8 7 -18 3 -22 -4 -5 -1 -5 6 -1 9 5
15 1 19 -13 3 -11 10 -18 15 -15 5 3 12 -3 15 -15 3 -11 9 -18 14 -15 5 3 13
-4 17 -15 4 -11 10 -20 15 -20 4 -1 7 -4 8 -8 0 -5 9 -11 20 -15 11 -4 17 -12
14 -18 -3 -5 0 -10 8 -10 8 0 21 -8 30 -18 15 -17 8 -26 -128 -162 l-145 -145
-110 110 -110 110 125 125 c69 69 122 130 118 135 -4 4 -3 5 3 2 7 -4 17 0 24
8 15 19 24 19 39 2z m-121 -27 c10 -17 10 -25 -3 -43 -8 -12 -15 -17 -15 -12
0 5 -7 -1 -16 -13 -15 -22 -17 -22 -35 -6 -20 18 -27 6 -7 -14 9 -9 4 -20 -22
-47 -32 -33 -35 -34 -52 -18 -20 18 -25 4 -5 -16 10 -10 9 -15 -5 -25 -10 -7
-14 -17 -10 -21 4 -5 1 -5 -5 -1 -7 4 -13 2 -13 -4 0 -6 -5 -8 -11 -4 -8 5 -7
10 4 16 10 5 14 16 11 26 -5 14 -4 14 5 2 5 -8 14 -11 18 -6 4 4 -1 15 -12 23
-14 11 -16 17 -7 20 6 3 9 9 6 15 -4 6 2 6 14 -1 17 -9 24 -7 40 14 14 17 22
21 25 13 2 -7 8 -9 13 -5 5 5 0 15 -11 23 -17 13 -18 16 -5 24 8 5 24 8 35 6
26 -5 45 11 38 32 -4 14 -3 15 6 2 5 -8 14 -11 18 -6 4 4 0 13 -10 20 -18 14
-22 26 -9 26 4 0 13 -9 20 -20z m241 -9 c10 -6 10 -13 2 -28 -5 -11 -7 -24 -3
-28 4 -5 1 -5 -6 -1 -7 4 -10 12 -6 17 3 6 3 17 0 26 -5 12 -9 13 -21 3 -13
-11 -14 -10 -9 4 7 18 22 20 43 7z m138 -131 c2 -9 17 -21 33 -27 26 -10 29
-16 28 -47 -1 -20 -4 -32 -7 -27 -11 17 -49 1 -55 -22 -5 -18 -8 -20 -16 -7
-6 10 -6 16 0 18 16 6 12 94 -5 112 -13 15 -13 17 1 17 9 0 19 -8 21 -17z m43
-10 c0 -5 -2 -10 -4 -10 -3 0 -8 5 -11 10 -3 6 -1 10 4 10 6 0 11 -4 11 -10z
m-63 -45 c0 -8 -4 -15 -9 -15 -4 0 -8 -5 -8 -11 0 -5 5 -7 10 -4 6 3 10 1 10
-4 0 -6 -4 -11 -10 -11 -5 0 -10 -7 -10 -15 0 -20 -10 -19 -26 3 -17 22 -18
38 -1 24 10 -9 16 -4 24 19 10 25 10 29 -2 19 -10 -8 -13 -6 -11 14 1 22 3 23
17 10 9 -8 16 -21 16 -29z m63 -55 c0 -5 -5 -10 -11 -10 -5 0 -7 5 -4 10 3 6
8 10 11 10 2 0 4 -4 4 -10z m-410 -223 c0 -5 -47 38 -105 94 -58 56 -105 107
-105 112 0 6 47 -36 105 -93 58 -58 105 -108 105 -113z m265 144 c3 -5 1 -12
-5 -16 -5 -3 -10 1 -10 9 0 18 6 21 15 7z m-121 -86 c-7 -16 -24 -21 -24 -6 0
8 7 13 27 20 1 1 0 -6 -3 -14z m-198 -92 c-2 -2 -19 -6 -38 -8 -36 -5 -36 -6
-29 64 1 10 13 3 36 -19 19 -18 33 -35 31 -37z m-101 17 c3 -5 1 -10 -4 -10
-6 0 -11 5 -11 10 0 6 2 10 4 10 3 0 8 -4 11 -10z m118 -40 c-3 -12 -8 -19
-11 -16 -5 6 5 36 12 36 2 0 2 -9 -1 -20z m-58 -20 c3 -5 1 -10 -4 -10 -6 0
-11 5 -11 10 0 6 2 10 4 10 3 0 8 -4 11 -10z"/>
<path d="M1090 2051 c0 -4 16 -22 35 -41 19 -19 35 -31 35 -28 0 2 -16 21 -35
41 -19 20 -35 33 -35 28z"/>
<path d="M1047 2013 l-26 -28 45 -47 c24 -26 44 -44 44 -39 0 4 -18 25 -40 46
l-40 39 27 28 c15 15 24 28 22 28 -3 0 -17 -12 -32 -27z"/>
<path d="M990 1905 c35 -36 67 -65 69 -65 3 0 -24 29 -59 65 -35 36 -67 65
-69 65 -3 0 24 -29 59 -65z"/>
<path d="M1144 1938 l-29 -33 33 29 c30 28 37 36 29 36 -2 0 -16 -15 -33 -32z"/>
<path d="M970 1957 c0 -2 15 -16 33 -33 l32 -29 -29 33 c-28 30 -36 37 -36 29z"/>
<path d="M910 1845 c30 -30 57 -55 59 -55 3 0 -19 25 -49 55 -30 30 -57 55
-59 55 -3 0 19 -25 49 -55z"/>
<path d="M1015 1830 c10 -11 20 -20 23 -20 3 0 -3 9 -13 20 -10 11 -20 20 -23
20 -3 0 3 -9 13 -20z"/>
<path d="M990 1766 c0 -2 8 -10 18 -17 15 -13 16 -12 3 4 -13 16 -21 21 -21
13z"/>
<path d="M878 2010 c-26 -24 -22 -35 4 -10 12 11 20 22 17 24 -2 2 -12 -4 -21
-14z"/>
<path d="M890 1661 c0 -13 29 -35 37 -28 7 8 -15 37 -28 37 -5 0 -9 -4 -9 -9z"/>
<path d="M3178 2243 c7 -3 16 -2 19 1 4 3 -2 6 -13 5 -11 0 -14 -3 -6 -6z"/>
<path d="M2440 2232 c0 -10 33 -42 43 -42 14 0 5 16 -18 33 -14 10 -25 14 -25
9z"/>
<path d="M3601 2213 c1 -17 3 -21 6 -10 3 13 10 16 25 11 15 -4 19 -2 16 7 -3
8 -14 15 -26 17 -18 3 -22 -1 -21 -25z"/>
<path d="M2261 2212 c-14 -27 -12 -35 8 -23 7 5 11 17 9 27 -4 17 -5 17 -17
-4z"/>
<path d="M4414 2173 c-6 -29 -9 -33 -12 -15 -2 14 -10 22 -23 22 -18 0 -19 -9
-19 -155 0 -117 3 -155 13 -155 9 0 9 -2 -1 -9 -9 -5 -11 -18 -7 -37 l7 -29
-16 29 c-13 23 -16 61 -16 192 0 111 -4 164 -11 164 -7 0 -10 -65 -8 -211 2
-117 5 -207 7 -200 2 6 7 9 12 6 4 -3 6 5 4 17 -4 21 -4 21 4 3 5 -11 7 -36 4
-55 -5 -33 -6 -33 -12 -10 -6 23 -8 22 -18 -16 -7 -23 -13 -60 -14 -83 -1 -46
-3 -47 -24 -26 -9 8 -21 15 -27 14 -9 0 -8 -2 1 -6 14 -5 17 -33 3 -33 -5 0
-12 6 -14 13 -4 8 -6 6 -6 -4 -1 -9 8 -24 18 -33 17 -16 18 -20 4 -47 -8 -17
-17 -28 -20 -25 -2 2 1 14 7 26 9 17 9 25 -1 34 -6 6 -9 7 -6 1 3 -6 -12 -9
-39 -6 l-44 3 0 -36 c0 -21 7 -50 15 -66 8 -16 12 -36 9 -44 -3 -9 -1 -16 5
-16 6 0 11 8 12 18 0 10 3 12 6 5 2 -7 -5 -25 -18 -40 -12 -16 -20 -21 -16
-12 3 9 1 31 -3 50 -9 33 -9 33 -8 4 3 -57 -15 -120 -45 -167 -17 -26 -33 -45
-35 -43 -3 3 0 11 6 18 18 21 43 87 34 87 -4 0 -14 -16 -21 -36 -7 -19 -19
-38 -27 -41 -8 -3 -14 -12 -14 -20 0 -14 -23 -43 -34 -43 -3 0 -6 14 -6 30 0
17 -4 30 -10 30 -5 0 -10 -18 -10 -39 0 -39 19 -59 42 -45 6 4 0 -7 -13 -25
-25 -34 -35 -40 -25 -16 3 8 2 15 -3 15 -5 0 -11 -13 -14 -28 -3 -15 -17 -40
-30 -54 -14 -15 -27 -33 -30 -40 -2 -7 -4 4 -4 24 1 21 4 32 8 26 5 -7 11 -9
16 -5 13 13 -20 27 -64 27 l-43 0 0 -51 c0 -29 4 -48 10 -44 5 3 5 -7 -1 -25
-13 -36 -37 -51 -67 -43 -13 3 -22 1 -22 -6 0 -7 5 -9 10 -6 6 3 10 1 10 -4 0
-6 -4 -11 -10 -11 -5 0 -10 -7 -10 -15 0 -8 -9 -15 -20 -15 -11 0 -20 5 -20
10 0 6 5 10 10 10 6 0 10 9 10 20 0 16 -7 20 -30 20 -28 0 -30 -2 -30 -40 0
-22 4 -40 10 -40 5 0 7 -7 4 -15 -4 -8 -1 -15 5 -15 6 0 11 4 11 9 0 5 14 14
30 20 18 6 28 6 25 1 -4 -6 -10 -10 -15 -10 -5 0 -26 -15 -46 -34 -21 -19 -41
-33 -45 -30 -4 2 -10 -4 -14 -15 -3 -10 -15 -21 -25 -24 -27 -7 -25 7 3 28 19
15 18 14 -8 -1 -16 -9 -37 -26 -46 -36 -9 -10 -24 -18 -33 -18 -9 0 -16 -4
-16 -10 0 -5 -18 -19 -40 -30 -22 -11 -40 -23 -40 -25 0 -7 70 23 87 37 7 6
15 9 18 6 10 -9 -93 -66 -125 -69 -19 -2 -39 -5 -45 -8 -5 -3 -23 -5 -40 -4
-28 2 -28 1 -5 -5 32 -9 32 -35 1 -44 -26 -8 -46 1 -23 9 10 4 10 8 1 19 -14
17 -30 18 -28 2 4 -32 -2 -38 -41 -38 -37 0 -46 -7 -41 -34 1 -5 -5 -6 -12 -3
-8 3 -19 1 -25 -5 -8 -8 -16 -8 -27 2 -12 10 -15 10 -15 -3 0 -9 8 -20 18 -26
14 -8 15 -10 2 -15 -30 -9 -117 -18 -187 -19 -60 -1 -70 -3 -61 -15 9 -10 9
-15 -1 -22 -8 -4 -10 -14 -7 -21 4 -8 1 -6 -7 3 -11 14 -30 18 -86 18 -64 0
-71 2 -71 20 0 18 -7 20 -80 20 -73 0 -80 -2 -80 -20 0 -18 7 -20 80 -20 73 0
80 -2 80 -20 0 -18 -7 -20 -82 -20 -102 0 -97 -9 8 -15 43 -2 95 -7 114 -10
l35 -5 -30 15 -30 14 37 -2 c20 -1 34 -6 31 -11 -7 -10 18 -5 130 26 42 12 77
26 77 31 0 4 -8 6 -19 2 -10 -3 -28 -2 -41 3 -17 6 -10 8 29 9 28 0 54 -3 57
-8 2 -4 21 -1 42 7 88 38 116 53 100 53 -10 1 -18 5 -18 11 0 5 11 9 24 8 14
-1 22 -6 20 -10 -9 -14 10 -9 44 12 18 11 38 20 45 20 24 1 139 78 125 84 -7
3 -3 4 9 2 13 -2 34 4 47 15 13 10 28 19 33 19 5 0 26 16 47 35 21 19 42 35
46 35 8 0 95 67 152 116 21 19 32 35 25 37 -8 3 -6 11 7 23 18 18 19 18 12 1
-4 -13 -2 -17 6 -14 7 2 12 14 11 26 -3 21 12 30 19 10 2 -6 12 -1 22 10 11
12 14 21 8 21 -7 0 -12 4 -12 10 0 5 10 9 23 7 17 -1 22 3 22 22 0 13 6 26 13
28 8 3 10 -1 5 -14 -3 -10 28 24 70 75 42 52 77 97 77 102 0 4 16 25 35 46 19
21 35 42 35 47 0 5 9 20 19 34 11 14 17 32 14 41 -3 9 -2 14 2 10 11 -10 28
16 82 124 32 65 42 93 34 101 -14 14 -14 37 -1 37 6 0 10 -8 10 -17 1 -45 66
127 110 292 22 81 24 97 12 77 -11 -16 -7 64 7 182 12 93 9 124 -5 59z m-194
-692 c0 -21 -26 -36 -35 -21 -6 10 14 39 28 40 4 0 7 -9 7 -19z m20 -41 c0 -5
-7 -10 -16 -10 -8 0 -12 5 -9 10 3 6 10 10 16 10 5 0 9 -4 9 -10z m-340 -440
c0 -13 -7 -20 -20 -20 -23 0 -25 5 -7 25 17 20 27 18 27 -5z m-516 -444 c-10
-8 -21 -12 -24 -10 -5 6 21 24 34 24 6 0 1 -6 -10 -14z m-138 -72 c-9 -8 -20
-12 -26 -9 -19 12 -10 25 16 25 23 0 24 -1 10 -16z"/>
<path d="M3178 2187 c6 -7 13 -46 15 -87 l3 -75 1 88 c0 71 -2 87 -15 87 -11
0 -12 -3 -4 -13z"/>
<path d="M1255 2180 c-3 -5 1 -10 9 -10 10 0 13 -6 9 -17 -5 -14 -3 -16 7 -6
7 6 10 19 7 27 -7 18 -23 21 -32 6z"/>
<path d="M2607 2163 c3 -7 6 -13 8 -13 2 0 5 6 8 13 3 8 -1 14 -8 14 -7 0 -11
-6 -8 -14z"/>
<path d="M2833 2167 c-4 -6 0 -7 8 -3 8 4 5 0 -5 -8 -19 -15 -42 -121 -24
-110 4 3 8 1 8 -5 0 -20 59 -42 95 -35 19 3 35 10 35 16 0 5 6 6 13 2 7 -5 6
0 -3 11 -9 11 -10 16 -2 11 7 -4 12 -1 12 9 0 9 -4 13 -10 10 -5 -3 -10 0 -10
9 0 8 6 17 13 19 6 3 -2 3 -19 0 -17 -3 -41 0 -52 6 -16 8 -21 7 -26 -5 -9
-23 -7 -34 5 -34 5 0 8 4 4 9 -3 5 0 13 6 17 8 5 10 1 7 -13 -4 -16 -2 -19 13
-16 11 3 19 1 19 -5 0 -17 -52 -9 -63 10 -8 12 -8 24 1 42 9 21 17 24 46 21
20 -2 39 1 42 6 3 5 10 7 15 4 5 -4 9 -4 9 -1 0 21 -126 51 -137 33z"/>
<path d="M3520 2171 c0 -5 7 -11 15 -15 8 -3 15 -1 15 3 0 5 9 7 20 4 11 -3
20 -10 20 -15 0 -5 5 -6 10 -3 18 11 -17 35 -49 35 -17 0 -31 -4 -31 -9z"/>
<path d="M3040 2146 c0 -2 7 -9 15 -16 12 -10 15 -10 15 4 0 9 -7 16 -15 16
-8 0 -15 -2 -15 -4z"/>
<path d="M3538 2143 c-23 -6 -23 -29 -2 -37 20 -8 19 -8 28 22 7 22 5 23 -26
15z"/>
<path d="M2190 2110 c0 -5 5 -10 10 -10 6 0 10 5 10 10 0 6 -4 10 -10 10 -5 0
-10 -4 -10 -10z"/>
<path d="M2900 2110 c0 -5 5 -10 10 -10 6 0 10 5 10 10 0 6 -4 10 -10 10 -5 0
-10 -4 -10 -10z"/>
<path d="M1264 2088 c-4 -7 -3 -8 4 -4 7 4 12 2 12 -3 0 -6 7 -11 16 -11 14 0
14 2 0 15 -18 18 -23 19 -32 3z"/>
<path d="M1317 2091 c4 -3 10 -10 14 -14 3 -4 11 -2 17 5 8 10 5 13 -15 14
-13 1 -21 -1 -16 -5z"/>
<path d="M3153 2060 c0 -25 2 -35 4 -22 2 12 2 32 0 45 -2 12 -4 2 -4 -23z"/>
<path d="M3483 2093 c9 -2 25 -2 35 0 9 3 1 5 -18 5 -19 0 -27 -2 -17 -5z"/>
<path d="M2600 2070 c0 -5 7 -10 16 -10 8 0 12 5 9 10 -3 6 -10 10 -16 10 -5
0 -9 -4 -9 -10z"/>
<path d="M3445 2059 c-4 -11 -4 -23 -1 -26 3 -4 6 -1 6 5 0 7 10 12 21 12 18
0 19 2 9 15 -17 21 -27 19 -35 -6z"/>
<path d="M1595 2022 c-3 -3 -5 -14 -5 -24 0 -10 -7 -18 -15 -18 -8 0 -15 -4
-15 -10 0 -5 -9 -10 -20 -10 -11 0 -20 -4 -20 -9 0 -5 9 -11 20 -14 11 -3 20
-13 19 -24 0 -16 -1 -16 -9 2 l-9 20 -1 -20 -1 -20 -9 20 c-6 13 -9 15 -9 5 0
-8 4 -22 9 -30 9 -13 10 -13 10 0 0 13 2 13 9 1 7 -11 12 -6 19 20 7 24 10 28
11 12 1 -33 -21 -77 -31 -61 -6 10 -8 9 -8 -4 0 -9 5 -20 10 -23 6 -3 9 -36 8
-73 l-2 -67 -3 55 c-6 77 -20 84 -17 8 2 -35 4 -70 4 -78 0 -13 2 -13 9 -1 6
9 9 -30 8 -100 l0 -114 -6 93 c-4 59 -11 96 -19 101 -7 4 -10 15 -6 25 5 13 2
17 -12 15 -10 -1 -32 4 -49 11 l-30 14 31 4 c26 2 31 7 27 23 -4 13 -14 19
-32 18 -14 0 -20 -3 -13 -6 18 -7 15 -21 -8 -28 -11 -3 -20 -13 -20 -21 0 -8
-6 -14 -13 -14 -7 0 -21 -15 -31 -32 -9 -18 -14 -24 -10 -13 4 11 9 32 12 48
3 18 10 27 23 27 12 0 19 7 19 20 0 13 -7 20 -20 20 -13 0 -20 -7 -20 -20 0
-11 -5 -20 -11 -20 -6 0 -9 -9 -6 -20 3 -11 1 -20 -4 -20 -5 0 -9 -34 -9 -75
0 -53 -4 -75 -12 -76 -7 -1 -24 -2 -38 -2 -14 -1 -25 -8 -24 -14 1 -7 2 -42 3
-78 1 -51 4 -65 16 -65 12 0 14 8 9 40 -4 27 -3 40 5 40 6 0 11 -12 11 -27 1
-24 3 -26 13 -13 17 21 38 24 30 4 -5 -14 -3 -14 16 -2 21 13 21 13 -9 27 -16
8 -30 18 -30 22 0 4 18 -2 40 -14 34 -19 37 -24 25 -33 -14 -10 -14 -12 1 -18
24 -9 42 -7 26 2 -8 6 -2 9 17 9 17 0 28 -4 26 -8 -9 -13 -55 -20 -74 -10 -10
6 -21 8 -25 4 -3 -3 6 -12 20 -19 27 -14 114 -15 114 -2 0 4 -8 8 -17 8 -12 0
-14 3 -7 10 14 14 44 2 44 -16 0 -8 7 -14 16 -14 8 0 13 4 9 9 -3 5 5 12 17
14 22 4 22 4 -2 6 -14 1 -33 8 -43 15 -15 12 -16 14 -2 20 9 3 15 0 15 -10 0
-8 4 -13 9 -10 5 3 6 16 3 28 -5 22 -4 21 20 -4 19 -21 31 -26 53 -22 17 3 31
0 36 -8 6 -10 11 -10 20 -1 8 8 6 13 -10 18 -18 6 -21 12 -15 41 5 25 3 34 -7
34 -11 0 -11 3 1 11 8 6 11 12 5 15 -6 2 -8 62 -4 166 3 90 2 170 -2 178 -7
13 -8 13 -9 0 0 -13 -1 -13 -10 0 -13 20 -13 33 0 25 6 -3 10 -1 10 5 0 6 -11
15 -24 20 -19 7 -23 14 -19 32 4 13 11 27 17 31 8 6 7 10 -1 14 -15 5 -18 23
-5 23 5 0 14 -12 20 -26 7 -14 8 -23 2 -19 -6 3 -10 -4 -10 -18 0 -23 18 -38
45 -41 6 -1 9 -13 8 -26 -1 -14 -2 -121 -3 -239 -1 -207 -1 -213 20 -228 l21
-15 -26 -14 c-32 -17 -38 -17 -30 -4 4 6 -6 10 -23 10 -18 0 -29 -5 -29 -15 0
-18 96 -17 116 2 7 8 22 11 32 8 27 -9 24 4 -3 15 -13 5 -16 9 -8 9 35 1 61
-42 36 -60 -4 -4 -3 -16 3 -27 14 -25 14 -55 1 -47 -5 3 -7 12 -4 19 3 8 0 17
-6 21 -13 8 -7 -33 9 -63 15 -28 14 -42 -4 -42 -8 0 -15 5 -15 11 0 5 5 7 10
4 6 -3 10 -2 10 4 0 14 -18 23 -25 12 -10 -18 7 -91 22 -91 17 0 43 24 43 40
0 7 7 10 18 6 9 -3 5 3 -10 15 -27 20 -28 25 -28 104 0 57 -4 85 -12 88 -10 4
-9 8 2 16 18 13 33 14 26 2 -9 -14 78 -61 104 -56 32 6 44 20 36 40 -5 14 -9
15 -22 5 -12 -11 -12 -15 -2 -21 9 -6 5 -9 -12 -9 -32 0 -55 15 -46 29 4 6 0
11 -9 11 -9 0 -13 -5 -9 -11 4 -7 1 -10 -7 -7 -8 3 -14 10 -14 16 0 20 -15 25
-45 12 -35 -14 -49 -8 -30 15 9 11 11 33 6 76 -13 113 -17 279 -6 279 5 0 10
20 10 45 0 46 -7 54 -28 33 -6 -6 -15 -8 -19 -4 -4 4 -1 11 7 16 13 8 12 10
-2 10 -10 0 -18 7 -18 15 0 8 -4 15 -9 15 -6 0 -9 18 -8 40 1 27 6 40 15 40 9
0 12 -7 9 -20 -3 -11 0 -20 5 -20 6 0 8 -13 5 -32 -3 -18 -3 -27 0 -20 2 6 12
12 21 12 14 0 15 -2 2 -10 -8 -5 -11 -12 -7 -16 16 -16 28 15 25 62 l-3 49
-83 1 c-45 0 -84 -2 -87 -4z m87 -71 c3 -19 0 -27 -7 -24 -7 2 -10 15 -7 29 6
31 9 30 14 -5z m-77 -81 c3 -5 -1 -10 -9 -10 -9 0 -16 5 -16 10 0 6 4 10 9 10
6 0 13 -4 16 -10z m105 0 c0 -5 -7 -10 -16 -10 -8 0 -12 5 -9 10 3 6 10 10 16
10 5 0 9 -4 9 -10z m50 6 c0 -2 -8 -10 -17 -17 -16 -13 -17 -12 -4 4 13 16 21
21 21 13z m-152 -208 c-2 -134 -6 -182 -15 -186 -10 -3 -13 38 -13 182 0 160
2 186 15 186 13 0 15 -24 13 -182z m39 160 c-3 -8 -6 -5 -6 6 -1 11 2 17 5 13
3 -3 4 -12 1 -19z m63 -164 c0 -144 -3 -185 -12 -182 -10 4 -14 49 -16 173 -3
172 -1 195 18 195 6 0 10 -65 10 -186z m-200 16 c-6 -4 -8 -14 -5 -22 5 -12
-2 -17 -32 -19 -21 -2 -51 -2 -66 1 -26 5 -27 6 -12 28 14 19 24 22 71 21 30
-1 50 -5 44 -9z m-141 -127 c0 -46 -3 -70 -8 -58 -7 20 -3 135 5 135 2 0 4
-35 3 -77z m141 -57 c0 -20 -39 -46 -67 -46 -23 0 -63 32 -63 50 0 6 28 10 65
10 50 0 65 -3 65 -14z"/>
<path d="M3460 2020 c-13 -8 -12 -10 3 -10 9 0 17 5 17 10 0 12 -1 12 -20 0z"/>
<path d="M2720 2012 c0 -5 -10 -13 -22 -16 -23 -6 -23 -7 -4 -21 19 -14 19
-15 -6 -15 -18 0 -27 7 -31 22 -5 18 -8 19 -22 8 -14 -12 -12 -15 22 -31 47
-22 63 -23 63 -4 0 7 8 18 17 23 16 9 16 11 0 27 -9 9 -17 12 -17 7z m10 -22
c0 -5 -8 -10 -17 -10 -15 0 -16 2 -3 10 19 12 20 12 20 0z"/>
<path d="M3360 1990 c0 -33 21 -40 46 -16 24 25 17 46 -16 46 -27 0 -30 -3
-30 -30z"/>
<path d="M2824 1995 c15 -8 34 -15 42 -15 21 0 5 -28 -19 -33 -12 -2 -3 -4 19
-4 23 0 48 3 55 8 10 6 8 9 -8 9 -13 0 -23 4 -23 10 0 5 -16 17 -36 25 -47 19
-68 19 -30 0z"/>
<path d="M4035 1990 c3 -5 10 -10 16 -10 5 0 9 5 9 10 0 6 -7 10 -16 10 -8 0
-12 -4 -9 -10z"/>
<path d="M2568 1983 c7 -3 16 -2 19 1 4 3 -2 6 -13 5 -11 0 -14 -3 -6 -6z"/>
<path d="M2788 1983 c24 -9 12 -23 -15 -18 -23 4 -24 4 -8 -4 19 -8 19 -9 -5
-13 -14 -3 -7 -3 15 -1 37 4 64 17 54 27 -2 2 -15 6 -29 9 -14 2 -19 2 -12 0z"/>
<path d="M2332 1960 c7 -11 17 -20 22 -20 4 0 3 6 -3 13 -6 8 -8 17 -4 20 3 4
-1 7 -10 7 -15 0 -15 -3 -5 -20z"/>
<path d="M2928 1973 c6 -2 18 -2 25 0 6 3 1 5 -13 5 -14 0 -19 -2 -12 -5z"/>
<path d="M2310 1940 c-9 -6 -10 -10 -3 -10 6 0 15 5 18 10 8 12 4 12 -15 0z"/>
<path d="M2438 1943 c7 -3 16 -2 19 1 4 3 -2 6 -13 5 -11 0 -14 -3 -6 -6z"/>
<path d="M2275 1920 c7 -22 -10 -28 -19 -7 -3 6 -5 3 -3 -8 3 -24 37 -34 37
-11 0 9 5 16 11 16 6 0 4 7 -5 15 -20 21 -29 19 -21 -5z"/>
<path d="M3354 1904 c-8 -45 4 -57 50 -49 30 6 36 11 36 32 0 31 -22 53 -54
53 -21 0 -26 -6 -32 -36z"/>
<path d="M720 1900 c0 -5 5 -10 10 -10 6 0 10 5 10 10 0 6 -4 10 -10 10 -5 0
-10 -4 -10 -10z"/>
<path d="M1655 1901 c-3 -5 -1 -12 5 -16 5 -3 10 1 10 9 0 18 -6 21 -15 7z"/>
<path d="M2270 1863 c-23 -14 -24 -14 -2 -10 17 4 22 1 22 -14 0 -11 -7 -19
-17 -19 -15 0 -16 2 -3 10 12 8 11 10 -7 10 -16 0 -21 -4 -17 -15 4 -8 1 -15
-5 -15 -7 0 -11 -23 -11 -61 0 -56 -2 -60 -20 -54 -11 3 -28 1 -37 -5 -15 -9
-14 -10 10 -5 31 6 34 0 11 -22 -13 -13 -17 -14 -24 -3 -4 7 -12 10 -18 6 -5
-3 -13 1 -16 10 -8 21 -7 31 2 18 5 -9 11 -7 21 4 15 15 8 16 -49 1 -31 -8
-53 -60 -31 -73 5 -3 9 6 9 20 0 13 2 27 5 30 6 6 83 -33 105 -53 13 -12 28
-17 45 -14 4 0 7 -3 7 -8 0 -5 33 -28 73 -50 39 -23 98 -57 131 -75 l58 -34
-1 -133 c-1 -73 -4 -135 -5 -137 -2 -2 -44 22 -94 52 -50 30 -106 62 -124 71
-38 18 -25 8 55 -42 l59 -36 -4 -58 c-2 -33 -2 -59 -1 -59 1 0 18 10 38 21 36
21 36 22 16 40 -23 21 -36 25 -25 7 4 -7 3 -8 -4 -4 -6 4 -9 13 -6 21 5 11 10
12 27 2 12 -7 27 -18 35 -25 15 -13 23 -10 60 22 13 12 29 21 35 21 7 0 14 4
17 10 10 19 74 45 85 34 7 -7 4 -8 -9 -3 -15 6 -17 4 -11 -6 5 -9 4 -11 -3 -6
-7 4 -12 3 -12 -2 0 -4 -18 -18 -40 -31 -22 -12 -40 -20 -40 -16 0 3 -12 -6
-27 -20 -16 -14 -34 -23 -40 -20 -7 2 -13 1 -13 -3 0 -4 -21 -18 -47 -32 -27
-14 -54 -30 -61 -37 -7 -7 -18 -13 -25 -13 -6 0 -2 6 9 14 20 15 15 28 -14 31
-22 2 -114 46 -108 52 2 3 13 0 24 -6 12 -6 24 -11 29 -11 4 1 -7 9 -26 19
-19 10 -29 21 -24 24 14 9 65 -32 57 -45 -5 -7 0 -9 14 -6 16 4 19 2 15 -11
-4 -13 -3 -14 5 -2 9 12 13 13 26 1 9 -7 19 -11 22 -8 4 5 -51 40 -204 127
-40 23 -77 39 -84 35 -6 -4 -8 -3 -5 3 8 13 -52 51 -75 47 -9 -1 -19 5 -22 13
-4 8 -13 13 -21 9 -8 -3 -14 0 -12 6 1 7 -8 13 -20 14 -12 1 -20 -3 -17 -8 3
-4 10 -6 15 -3 5 4 9 2 9 -4 0 -6 14 -17 30 -26 17 -9 30 -13 30 -10 0 3 9 -4
21 -16 12 -12 27 -18 37 -14 9 3 13 3 9 -1 -10 -10 52 -46 65 -38 7 4 8 2 4
-4 -7 -12 47 -45 58 -35 3 4 6 1 6 -6 0 -7 5 -9 10 -6 11 7 12 -2 10 -97 -2
-76 5 -95 25 -78 16 13 39 4 29 -12 -6 -10 -39 -7 -79 8 -16 6 -18 5 -7 -7 14
-16 16 -43 2 -34 -6 4 -8 10 -5 15 3 5 1 11 -5 15 -6 4 -8 11 -5 16 4 5 -2 13
-12 17 -10 4 -51 27 -90 51 -73 43 -73 43 -73 87 l0 43 -80 46 c-43 26 -82 46
-86 46 -4 -1 -8 -18 -8 -39 -1 -28 5 -41 24 -54 21 -15 22 -18 7 -24 -9 -3
-17 -10 -17 -15 0 -5 11 -4 25 1 19 7 35 4 72 -15 27 -13 42 -25 34 -25 -11 0
-11 -3 0 -17 13 -16 12 -17 -3 -4 -10 7 -15 17 -12 22 9 15 -23 10 -36 -6 -7
-8 -17 -15 -22 -15 -15 0 -38 -27 -38 -44 0 -13 14 -16 83 -15 66 0 78 2 60
11 -13 6 -23 15 -23 20 0 11 14 10 27 -3 8 -8 13 -8 17 0 4 6 12 11 19 11 8 0
8 -3 -1 -12 -16 -16 -15 -25 4 -32 14 -5 15 -4 5 8 -10 12 -9 15 8 13 12 -1
21 -5 21 -9 0 -4 5 -8 11 -8 16 0 41 -28 35 -39 -6 -8 21 -26 35 -23 4 1 -3
-23 -15 -53 -23 -61 -31 -67 -38 -31 -3 16 -1 23 8 19 6 -2 15 0 19 6 3 6 -1
11 -9 11 -17 0 -21 15 -7 24 5 4 12 0 14 -6 3 -8 6 -6 6 4 1 10 -8 22 -19 28
-11 6 -20 18 -20 28 0 13 -3 12 -15 -5 -12 -18 -14 -40 -10 -105 3 -45 8 -85
11 -90 6 -10 34 16 34 31 0 15 -17 14 -23 -1 -3 -8 -6 -5 -6 5 -1 26 33 18 37
-9 2 -13 -6 -25 -23 -34 -14 -7 -25 -19 -25 -27 0 -19 17 -16 32 5 12 17 16
16 63 -16 28 -19 43 -32 35 -29 -74 28 -91 30 -107 15 -8 -9 -13 -22 -10 -30
3 -9 8 -5 14 10 8 21 10 22 22 8 9 -11 17 -13 26 -6 13 10 58 -1 110 -28 17
-8 47 -24 68 -35 41 -21 49 -32 16 -22 -16 5 -20 3 -17 -6 3 -8 18 -14 34 -15
34 0 126 -42 120 -53 -6 -9 53 -16 130 -15 49 1 67 6 85 23 12 11 28 21 35 21
6 0 23 9 38 21 14 11 26 16 26 10 0 -6 18 -11 40 -11 22 0 40 5 40 10 0 6 -7
10 -16 10 -10 0 5 12 32 26 27 14 61 34 75 45 29 20 54 26 44 9 -3 -5 1 -10
10 -10 11 0 15 5 11 15 -3 9 0 15 9 15 8 0 15 -4 15 -10 0 -5 7 -10 16 -10 11
0 14 6 9 20 -4 13 -1 22 9 26 15 6 23 44 10 44 -3 0 -17 -14 -31 -30 -13 -17
-29 -28 -33 -25 -5 3 -11 1 -15 -5 -8 -13 -25 -13 -25 0 0 6 6 10 13 10 7 0
29 14 47 30 19 17 39 29 44 27 17 -5 19 -59 4 -68 -20 -13 9 -29 55 -29 37 0
37 0 37 40 0 25 -5 40 -12 40 -8 0 -9 3 -3 8 6 4 10 13 11 20 1 6 2 21 3 33 0
11 6 17 11 14 6 -3 10 -1 10 5 0 8 10 10 28 6 15 -3 21 -3 15 0 -19 8 -16 27
3 20 8 -3 12 -2 9 4 -3 6 -1 10 5 10 6 0 37 18 67 40 31 22 62 40 70 40 7 0
13 5 13 10 0 6 7 10 16 10 8 0 32 12 52 27 20 15 31 21 25 13 -7 -8 -13 -21
-13 -29 0 -9 9 -3 22 15 12 17 37 40 55 52 27 18 33 29 34 60 3 64 -3 117 -13
130 -8 9 -5 12 11 12 19 0 22 5 19 33 -3 31 -5 32 -48 33 -39 1 -40 1 -7 -3
23 -3 37 -9 37 -19 0 -8 -4 -15 -10 -15 -5 -1 -14 -3 -20 -4 -5 -1 -13 -3 -17
-4 -5 -1 -1 -6 7 -11 8 -5 10 -10 5 -10 -6 0 -23 16 -39 35 -16 19 -36 35 -45
35 -11 0 -9 -5 7 -20 25 -24 28 -32 8 -24 -7 3 -16 -2 -19 -10 -4 -11 -1 -13
10 -9 12 5 15 2 11 -9 -4 -9 -1 -21 5 -28 8 -8 4 -8 -13 1 -14 8 -27 16 -30
20 -3 3 -22 15 -43 28 -21 13 -36 26 -32 29 3 3 19 -5 36 -17 29 -22 32 -22
48 -7 14 15 14 18 1 26 -8 5 -19 9 -25 9 -5 0 -4 -3 3 -6 14 -6 16 -23 2 -23
-5 0 -19 9 -30 20 -11 11 -31 20 -45 20 -25 0 -33 15 -34 70 -2 87 4 80 -64
81 -34 0 -70 2 -79 4 -10 2 -18 -3 -18 -11 0 -8 -5 -14 -11 -14 -6 0 -9 6 -6
13 6 16 -29 17 -52 3 -9 -6 -12 -5 -8 1 3 5 0 10 -8 10 -8 0 -12 -4 -9 -9 3
-4 -1 -8 -8 -9 -7 0 -4 -5 7 -10 15 -7 8 -8 -25 -4 -32 4 -41 2 -30 -5 19 -12
100 -13 100 -1 0 11 40 2 59 -13 7 -5 25 -12 39 -14 15 -2 32 -8 39 -14 9 -7
13 -7 13 1 0 6 9 11 20 11 25 0 26 -17 3 -23 -13 -3 -11 -5 7 -7 23 -1 23 -2
5 -9 -11 -5 -28 -4 -37 1 -12 5 -18 5 -18 -2 0 -5 5 -10 12 -10 6 0 9 -2 6 -5
-8 -9 -78 35 -78 48 0 8 -3 8 -9 -1 -6 -10 -10 -10 -21 3 -17 20 -115 12 -142
-12 -18 -16 -18 -16 -12 0 3 9 10 17 16 17 5 0 6 5 3 10 -4 6 -11 8 -16 5 -5
-4 -9 0 -9 7 0 9 -3 9 -10 -2 -7 -11 -10 -12 -10 -2 0 10 -4 10 -16 -2 -8 -9
-20 -16 -25 -16 -5 0 -9 -8 -9 -17 -1 -17 -1 -17 -14 0 -7 9 -19 17 -27 17
-10 1 -8 5 5 15 11 8 28 13 38 9 21 -6 23 1 6 20 -10 10 -18 9 -45 -6 -34 -21
-56 -17 -46 7 3 10 -2 15 -16 15 -24 0 -27 20 -8 51 10 17 10 23 0 26 -20 7
-15 23 8 23 17 0 20 5 17 31 l-3 31 -68 2 c-62 1 -68 -1 -73 -21 -4 -13 1 -28
14 -41 14 -14 18 -28 14 -48 l-6 -29 -8 32 c-6 24 -18 37 -46 50 -20 9 -40 22
-44 27 -4 6 -11 11 -15 11 -12 0 -73 38 -73 45 0 4 -6 7 -12 7 -7 0 -44 18
-82 41 -37 23 -71 42 -75 42 -5 0 -16 9 -26 20 -10 11 -13 20 -7 20 6 0 13 -6
15 -12 4 -10 6 -10 6 0 1 6 9 12 18 12 15 0 14 -2 -3 -16 -18 -14 -17 -15 18
-9 21 3 39 1 43 -5 3 -5 -2 -10 -11 -10 -16 0 -16 -1 1 -14 21 -15 40 -12 30
5 -12 18 11 9 29 -13 18 -21 19 -21 33 -2 15 18 15 18 9 -3 -5 -16 2 -30 30
-57 20 -20 45 -36 55 -36 10 0 23 -8 28 -17 6 -10 11 -12 11 -5 0 6 5 12 11
12 6 0 9 -6 6 -14 -3 -8 0 -16 6 -19 7 -2 13 5 13 18 1 16 -4 22 -20 22 -26 0
-64 16 -96 42 -16 13 -20 21 -11 21 8 0 23 -7 33 -17 10 -9 18 -11 18 -6 0 16
-31 38 -53 38 -14 0 -21 8 -23 28 -5 47 -25 57 -126 63 -51 3 -104 6 -118 8
-14 2 -36 -3 -50 -11z m68 -47 c3 -12 -1 -17 -10 -14 -7 3 -15 13 -16 22 -3
12 1 17 10 14 7 -3 15 -13 16 -22z m202 -6 c0 -5 -2 -10 -4 -10 -3 0 -8 5 -11
10 -3 6 -1 10 4 10 6 0 11 -4 11 -10z m-270 -12 c0 -9 4 -8 10 2 7 10 10 -18
9 -92 -1 -99 -8 -125 -24 -98 -3 6 -1 10 4 10 7 0 10 30 10 83 -1 45 -4 69 -6
52 -8 -63 -14 -80 -24 -64 -10 16 -12 102 -2 112 10 11 23 8 23 -5z m319 -122
c8 -9 8 -16 2 -20 -6 -4 -15 3 -21 14 -12 23 2 27 19 6z m211 4 c0 -5 -2 -10
-4 -10 -3 0 -8 5 -11 10 -3 6 -1 10 4 10 6 0 11 -4 11 -10z m-575 -20 c-10
-11 -22 -20 -27 -20 -10 0 24 38 36 39 5 1 1 -8 -9 -19z m575 -12 c0 -11 -8
-10 -31 2 -28 16 -23 30 6 17 14 -7 25 -15 25 -19z m-565 -17 c-3 -6 -11 -11
-16 -11 -5 0 -4 6 3 14 14 16 24 13 13 -3z m423 -4 c2 -12 -1 -15 -12 -11 -19
7 -22 38 -3 32 6 -3 13 -12 15 -21z m-138 -17 l21 -30 -25 0 c-22 0 -26 4 -26
30 0 17 2 30 4 30 3 0 14 -13 26 -30z m280 16 c0 -2 -7 -19 -15 -37 -14 -34
-14 -34 -15 -6 0 15 5 27 11 27 5 0 7 5 4 10 -3 6 -1 10 4 10 6 0 11 -2 11 -4z
m-80 -32 c0 -8 -4 -14 -9 -14 -11 0 -22 26 -14 34 9 9 23 -3 23 -20z m-306
-27 c12 -19 3 -32 -19 -24 -17 7 -21 51 -3 45 6 -2 16 -12 22 -21z m413 -9
c-3 -7 -5 -2 -5 12 0 14 2 19 5 13 2 -7 2 -19 0 -25z m-30 0 c-3 -8 -6 -5 -6
6 -1 11 2 17 5 13 3 -3 4 -12 1 -19z m-239 -81 c7 -5 10 -12 8 -14 -6 -7 -136
70 -136 80 0 8 98 -43 128 -66z m299 47 c-3 -3 -12 -4 -19 -1 -8 3 -5 6 6 6
11 1 17 -2 13 -5z m473 -14 c11 -7 7 -10 -17 -10 -18 0 -33 5 -33 10 0 13 30
13 50 0z m-315 -59 c3 -5 2 -12 -3 -15 -5 -3 -9 1 -9 9 0 17 3 19 12 6z m-26
-14 c-2 -2 -21 -15 -42 -30 -20 -16 -42 -25 -49 -21 -7 5 -8 3 -3 -6 5 -8 4
-11 -3 -6 -5 3 -12 2 -14 -3 -1 -5 -16 -12 -33 -15 -16 -4 -23 -3 -15 0 8 4
29 18 47 31 17 14 34 24 37 24 19 -3 26 0 24 11 -2 6 8 14 22 18 23 6 40 4 29
-3z m-331 -21 c3 -12 -1 -17 -10 -14 -7 3 -15 13 -16 22 -3 12 1 17 10 14 7
-3 15 -13 16 -22z m-122 -1 c-3 -9 0 -15 10 -15 9 0 12 5 8 12 -4 6 17 -3 47
-20 30 -17 53 -37 51 -43 -2 -7 4 -9 13 -5 11 4 14 2 9 -6 -5 -8 -2 -9 10 -5
9 4 14 3 11 -2 -3 -5 -1 -12 5 -16 5 -3 10 -1 10 5 0 6 5 8 11 4 14 -9 -8 -24
-36 -24 -17 0 -17 2 -5 10 8 5 12 10 8 10 -3 0 -14 3 -24 7 -12 4 -15 3 -10
-6 5 -7 -9 -1 -30 12 -22 14 -38 30 -36 36 1 6 -3 11 -9 11 -5 0 -7 5 -3 12 4
7 3 8 -5 4 -6 -4 -9 -12 -6 -17 10 -16 -5 -10 -26 10 -12 11 -18 24 -14 30 9
16 18 13 11 -4z m704 -122 c121 -70 220 -130 220 -134 0 -3 -53 -37 -117 -74
-65 -38 -203 -119 -308 -180 -104 -62 -227 -133 -272 -159 l-81 -47 -221 128
c-122 70 -220 132 -218 137 3 10 104 73 257 160 41 24 113 66 160 93 287 169
346 203 353 203 4 0 107 -57 227 -127z m116 102 c4 -8 14 -15 23 -16 12 0 13
-2 2 -6 -8 -3 -19 1 -25 9 -6 8 -18 17 -26 21 -12 4 -11 6 3 6 10 1 20 -6 23
-14z m-636 -16 c0 -18 -2 -19 -15 -9 -8 7 -15 16 -15 21 0 5 7 9 15 9 9 0 15
-9 15 -21z m88 -53 c-13 -7 -42 -24 -65 -39 -25 -16 -49 -24 -59 -20 -14 5
-13 8 7 19 13 7 27 10 32 7 4 -3 16 4 25 14 23 27 53 42 69 36 10 -4 7 -9 -9
-17z m762 -36 c8 12 10 12 10 -5 0 -14 3 -16 8 -7 5 6 9 -25 11 -70 1 -45 -1
-79 -5 -75 -4 4 -7 30 -5 57 2 42 -1 53 -23 73 -14 14 -26 28 -26 33 0 5 5 2
10 -6 9 -13 11 -13 20 0z m-1620 -175 c10 -13 9 -15 -9 -15 -12 0 -21 6 -21
15 0 8 4 15 9 15 5 0 14 -7 21 -15z m80 -9 c0 -3 -4 -8 -10 -11 -5 -3 -10 -1
-10 4 0 6 5 11 10 11 6 0 10 -2 10 -4z m307 -60 c4 -4 4 -7 -2 -5 -5 1 -18 -1
-28 -6 -10 -4 -21 -5 -24 -1 -4 3 1 6 11 6 9 0 15 4 12 9 -7 11 20 8 31 -3z
m-234 -50 c3 -8 0 -22 -7 -31 -11 -16 -13 -14 -13 14 0 32 11 41 20 17z m127
-6 c0 -5 -4 -10 -10 -10 -5 0 -10 5 -10 10 0 6 5 10 10 10 6 0 10 -4 10 -10z
m-50 -30 c0 -5 -4 -10 -10 -10 -5 0 -10 5 -10 10 0 6 5 10 10 10 6 0 10 -4 10
-10z m990 -100 c-14 -11 -32 -20 -40 -20 -8 0 -1 9 15 20 39 26 58 26 25 0z
m-190 -107 c0 -10 -107 -73 -123 -73 -6 0 11 15 38 34 28 18 53 32 58 29 4 -2
7 1 7 6 0 6 5 11 10 11 6 0 10 -3 10 -7z m-145 -83 c-3 -5 -11 -10 -16 -10 -6
0 -7 5 -4 10 3 6 11 10 16 10 6 0 7 -4 4 -10z"/>
<path d="M2253 1750 c0 -30 2 -43 4 -27 2 15 2 39 0 55 -2 15 -4 2 -4 -28z"/>
<path d="M2591 1367 c34 -25 59 -36 57 -25 -4 18 -19 28 -42 28 -11 0 -17 -1
-15 -3z"/>
<path d="M2700 1280 c-9 -6 -10 -10 -3 -10 6 0 15 5 18 10 8 12 4 12 -15 0z"/>
<path d="M460 1785 c0 -43 4 -75 10 -75 6 0 10 32 10 75 0 43 -4 75 -10 75 -6
0 -10 -32 -10 -75z"/>
<path d="M723 1815 c-3 -36 8 -44 37 -25 13 9 13 12 -2 21 -10 5 -18 17 -18
24 0 31 -15 13 -17 -20z m22 -15 c3 -5 1 -10 -4 -10 -6 0 -11 5 -11 10 0 6 2
10 4 10 3 0 8 -4 11 -10z"/>
<path d="M2484 1789 c-4 -8 -3 -10 4 -5 7 4 12 3 12 -3 0 -5 10 -13 23 -17 12
-4 25 -12 29 -18 5 -8 8 -7 8 2 0 7 -8 15 -17 19 -10 3 -25 12 -35 20 -12 11
-18 12 -24 2z"/>
<path d="M4140 1770 c0 -5 5 -10 10 -10 6 0 10 5 10 10 0 6 -4 10 -10 10 -5 0
-10 -4 -10 -10z"/>
<path d="M802 1730 c-7 -12 -8 -20 -2 -20 5 0 10 5 10 11 0 8 5 7 15 -1 20
-17 32 -5 15 15 -16 20 -23 19 -38 -5z"/>
<path d="M3514 1735 c-9 -23 3 -45 26 -45 25 0 37 25 20 45 -16 19 -39 19 -46
0z"/>
<path d="M4120 1720 c0 -13 7 -20 20 -20 13 0 20 7 20 20 0 13 -7 20 -20 20
-13 0 -20 -7 -20 -20z"/>
<path d="M1505 1720 c-3 -5 -1 -10 4 -10 6 0 11 5 11 10 0 6 -2 10 -4 10 -3 0
-8 -4 -11 -10z"/>
<path d="M4080 1710 c0 -5 5 -10 10 -10 6 0 10 5 10 10 0 6 -4 10 -10 10 -5 0
-10 -4 -10 -10z"/>
<path d="M1287 1693 c-4 -3 -7 -37 -7 -74 0 -63 1 -67 25 -71 13 -3 27 -3 30
0 3 3 5 38 5 79 0 70 -1 73 -23 73 -13 0 -27 -3 -30 -7z"/>
<path d="M1100 1681 c0 -17 -49 -63 -59 -56 -7 3 -8 0 -5 -9 8 -20 20 -20 28
-1 3 8 10 15 15 15 6 0 8 -7 5 -15 -4 -10 0 -15 15 -15 15 0 21 6 21 21 0 11
-4 17 -10 14 -5 -3 -10 1 -10 9 0 9 5 15 12 14 6 -2 14 5 16 15 2 10 -2 17
-12 17 -9 0 -16 -4 -16 -9z"/>
<path d="M3925 1650 c-3 -5 -1 -10 4 -10 6 0 11 5 11 10 0 6 -2 10 -4 10 -3 0
-8 -4 -11 -10z"/>
<path d="M3890 1640 c0 -5 5 -10 10 -10 6 0 10 5 10 10 0 6 -4 10 -10 10 -5 0
-10 -4 -10 -10z"/>
<path d="M3980 1600 c0 -11 5 -20 10 -20 6 0 10 9 10 20 0 11 -4 20 -10 20 -5
0 -10 -9 -10 -20z"/>
<path d="M2075 1580 c-5 -21 -13 -30 -26 -30 -11 0 -18 -4 -14 -10 3 -5 0 -18
-6 -29 -10 -15 -9 -22 5 -36 12 -12 14 -21 6 -29 -7 -9 -2 -16 18 -27 15 -7
38 -21 52 -29 49 -32 140 -81 140 -76 0 3 -21 17 -47 32 -90 51 -158 96 -137
90 21 -6 21 -3 22 84 1 49 -1 90 -3 90 -2 0 -6 -13 -10 -30z m5 -66 c0 -14 -4
-23 -10 -19 -5 3 -10 15 -10 26 0 10 5 19 10 19 6 0 10 -12 10 -26z"/>
<path d="M794 1575 c-9 -23 3 -45 26 -45 25 0 37 25 20 45 -16 19 -39 19 -46
0z"/>
<path d="M1030 1573 c1 -21 20 -33 56 -36 33 -2 39 1 39 18 0 17 -8 20 -47 23
-27 2 -48 -1 -48 -5z"/>
<path d="M980 1550 c0 -5 9 -10 20 -10 11 0 20 5 20 10 0 6 -9 10 -20 10 -11
0 -20 -4 -20 -10z"/>
<path d="M1917 1543 c-10 -9 -8 -85 1 -101 5 -7 16 -10 25 -6 12 4 18 -1 23
-20 3 -13 3 -29 0 -35 -4 -5 -3 -12 2 -15 5 -3 9 16 11 41 1 26 4 50 7 55 3 4
-2 8 -10 8 -8 0 -18 -5 -21 -10 -14 -22 -24 3 -18 45 5 42 -2 56 -20 38z"/>
<path d="M1962 1528 c22 -32 38 -34 38 -4 0 21 -5 26 -26 26 -25 0 -26 -1 -12
-22z"/>
<path d="M2998 1543 c6 -2 18 -2 25 0 6 3 1 5 -13 5 -14 0 -19 -2 -12 -5z"/>
<path d="M3048 1538 c-9 -5 -6 -7 9 -5 12 2 25 6 28 8 8 9 -23 6 -37 -3z"/>
<path d="M1765 1450 c-3 -6 1 -7 9 -4 18 7 21 14 7 14 -6 0 -13 -4 -16 -10z"/>
<path d="M2006 1413 c-16 -16 -5 -34 17 -28 21 6 21 5 4 -9 -18 -14 -18 -15 2
-26 19 -10 21 -8 21 17 0 27 -31 59 -44 46z"/>
<path d="M1328 1378 c6 -6 18 -8 28 -6 14 3 12 5 -9 10 -19 3 -25 2 -19 -4z"/>
<path d="M3655 1379 c-9 -13 3 -59 14 -59 11 0 24 48 16 60 -8 13 -22 13 -30
-1z"/>
<path d="M1746 1365 c4 -8 10 -12 15 -9 14 8 10 24 -6 24 -9 0 -12 -6 -9 -15z"/>
<path d="M3640 1290 c0 -5 5 -10 10 -10 6 0 10 5 10 10 0 6 -4 10 -10 10 -5 0
-10 -4 -10 -10z"/>
<path d="M4082 1280 c0 -14 2 -19 5 -12 2 6 2 18 0 25 -3 6 -5 1 -5 -13z"/>
<path d="M3640 1239 c0 -11 5 -17 10 -14 6 3 10 13 10 21 0 8 -4 14 -10 14 -5
0 -10 -9 -10 -21z"/>
<path d="M3683 1185 c0 -22 2 -30 4 -17 2 12 2 30 0 40 -3 9 -5 -1 -4 -23z"/>
<path d="M3632 1190 c0 -14 2 -19 5 -12 2 6 2 18 0 25 -3 6 -5 1 -5 -13z"/>
<path d="M1862 1167 c-12 -7 -19 -16 -16 -20 10 -10 56 -8 73 2 11 7 10 11 -7
20 -25 13 -22 13 -50 -2z m28 -7 c-8 -5 -19 -10 -25 -10 -5 0 -3 5 5 10 8 5
20 10 25 10 6 0 3 -5 -5 -10z"/>
<path d="M3642 1148 c3 -7 13 -15 23 -17 17 -3 17 -2 3 13 -20 19 -31 21 -26
4z"/>
<path d="M709 1126 c6 -7 9 -20 6 -28 -3 -8 5 -26 17 -40 13 -13 45 -50 72
-81 27 -32 53 -57 59 -57 6 0 -3 15 -21 33 -22 23 -32 43 -32 65 0 23 -5 32
-16 32 -11 0 -14 -6 -10 -17 4 -11 -4 -7 -19 10 -14 15 -25 37 -25 48 0 11 -6
27 -14 35 -19 18 -32 18 -17 0z"/>
<path d="M1754 1104 c-8 -45 4 -57 50 -49 30 6 36 11 36 32 0 31 -22 53 -54
53 -21 0 -26 -6 -32 -36z"/>
<path d="M3633 1105 c-23 -26 -15 -45 18 -45 27 0 30 3 27 27 -3 31 -26 40
-45 18z"/>
<path d="M3570 1090 c-8 -5 -10 -10 -5 -10 6 0 3 -5 -5 -10 -12 -8 -10 -10 10
-10 19 0 26 5 26 20 0 22 -4 24 -26 10z"/>
<path d="M3435 1016 c-38 -12 -39 -13 -18 -24 12 -7 40 -12 63 -12 37 0 41 2
38 23 -4 27 -28 31 -83 13z m60 -16 c-7 -12 -52 -14 -59 -2 -2 4 11 9 30 10
23 2 33 -1 29 -8z"/>
<path d="M3350 955 c0 -9 -10 -15 -22 -16 -13 0 -17 -3 -10 -6 6 -2 12 -12 12
-20 0 -26 25 3 28 31 1 14 0 26 -3 26 -3 0 -5 -7 -5 -15z"/>
<path d="M3290 910 c0 -5 5 -10 10 -10 6 0 10 5 10 10 0 6 -4 10 -10 10 -5 0
-10 -4 -10 -10z"/>
<path d="M945 834 c44 -41 83 -74 88 -74 12 0 8 11 -11 28 -10 10 -12 13 -5 8
16 -11 28 -2 18 14 -3 6 -18 9 -32 8 -14 -2 -28 3 -30 10 -3 6 1 12 7 12 17 0
40 26 40 44 0 10 -9 16 -22 17 -13 0 -31 2 -41 4 -9 2 -15 -1 -11 -6 3 -5 0
-9 -7 -9 -8 0 -7 -5 2 -17 12 -14 12 -16 -1 -11 -8 3 -14 14 -13 24 1 15 -5
20 -30 21 -31 1 -30 -1 48 -73z"/>
<path d="M1058 902 c-22 -4 -24 -47 -4 -68 8 -8 26 -14 40 -14 26 0 27 2 30
68 1 17 -26 23 -66 14z"/>
<path d="M1073 785 c-22 -24 -15 -49 21 -77 19 -16 39 -28 45 -28 5 0 11 -5
13 -11 2 -6 16 -13 32 -14 15 -2 31 -7 34 -11 4 -4 -2 -4 -13 0 -18 6 -18 5
-5 -7 31 -29 123 -87 139 -87 14 0 14 2 1 11 -25 17 30 0 68 -22 18 -10 51
-19 73 -19 32 0 39 3 39 20 0 11 5 20 10 20 6 0 10 4 10 9 0 15 -92 24 -100
11 -5 -7 -13 -9 -20 -5 -9 5 -11 4 -6 -3 4 -7 1 -12 -8 -12 -8 0 -17 4 -21 9
-3 6 -26 13 -50 17 -34 5 -45 11 -45 25 0 10 -4 20 -9 23 -5 3 -7 15 -4 25 4
16 -2 19 -42 23 -26 2 -49 0 -52 -5 -2 -4 -9 -5 -14 -1 -5 3 1 14 13 24 29 23
18 35 -33 35 -22 0 -36 1 -31 3 4 1 6 16 4 32 -5 33 -28 40 -49 15z m87 -75
c0 -5 -9 -10 -21 -10 -11 0 -17 5 -14 10 3 6 13 10 21 10 8 0 14 -4 14 -10z
m95 -80 c3 -5 2 -10 -4 -10 -5 0 -13 5 -16 10 -3 6 -2 10 4 10 5 0 13 -4 16
-10z"/>
<path d="M1240 730 c0 -5 9 -10 20 -10 11 0 20 5 20 10 0 6 -9 10 -20 10 -11
0 -20 -4 -20 -10z"/>
<path d="M3520 730 c0 -5 5 -10 10 -10 6 0 10 5 10 10 0 6 -4 10 -10 10 -5 0
-10 -4 -10 -10z"/>
<path d="M2240 695 c0 -17 4 -23 14 -19 8 3 24 0 36 -6 17 -9 25 -9 34 1 8 9
8 10 -2 5 -8 -5 -20 0 -30 11 -9 11 -25 22 -34 26 -14 5 -18 1 -18 -18z"/>
<path d="M2931 684 l-23 -12 22 -7 c12 -4 24 -4 27 -1 4 3 0 6 -8 6 -12 0 -12
2 1 10 23 14 8 18 -19 4z"/>
<path d="M2247 663 c-15 -15 -7 -43 13 -43 13 0 20 -7 20 -20 0 -17 7 -20 50
-20 28 0 53 -1 57 -2 4 -2 10 8 13 22 7 24 6 25 -42 22 -43 -4 -52 -1 -71 22
-24 27 -30 30 -40 19z"/>
<path d="M3448 653 c6 -2 18 -2 25 0 6 3 1 5 -13 5 -14 0 -19 -2 -12 -5z"/>
<path d="M2762 613 c-15 -6 -21 -12 -14 -12 7 -1 23 4 35 10 l22 10 -22 -19
-21 -19 26 -1 c15 -1 36 -2 47 -3 36 -3 45 1 45 20 0 15 -9 20 -46 23 -25 2
-58 -2 -72 -9z"/>
<path d="M2410 600 c0 -8 25 -20 41 -20 20 0 7 18 -16 22 -14 3 -25 2 -25 -2z"/>
<path d="M1560 550 c0 -16 5 -30 10 -30 16 0 12 -28 -5 -38 -13 -7 -11 -11 11
-21 24 -11 26 -10 14 3 -8 11 -9 16 -1 16 7 0 11 20 11 50 0 43 -3 50 -20 50
-16 0 -20 -7 -20 -30z"/>
<path d="M1360 543 c0 -5 18 -18 41 -31 59 -34 199 -93 199 -83 0 4 -16 13
-34 21 -28 10 -33 17 -26 30 7 13 1 16 -47 18 -41 2 -63 9 -87 27 -34 26 -46
30 -46 18z m155 -63 c8 -13 -5 -13 -25 0 -13 8 -13 10 2 10 9 0 20 -4 23 -10z"/>
<path d="M2578 523 c12 -2 32 -2 45 0 12 2 2 4 -23 4 -25 0 -35 -2 -22 -4z"/>
<path d="M2578 503 c12 -2 32 -2 45 0 12 2 2 4 -23 4 -25 0 -35 -2 -22 -4z"/>
<path d="M1615 420 c-2 -4 11 -12 30 -18 20 -6 35 -6 35 -1 0 5 11 9 25 9 14
0 25 4 25 8 0 4 -11 8 -25 8 -14 0 -25 -4 -25 -8 0 -4 -5 -8 -11 -8 -5 0 -8 4
-5 8 2 4 -7 8 -20 8 -14 0 -27 -3 -29 -6z"/>
<path d="M1925 421 c-3 -2 -5 -13 -5 -23 0 -16 9 -18 75 -18 59 0 77 3 82 15
3 9 3 19 -1 22 -8 8 -144 11 -151 4z"/>
<path d="M1757 414 c-3 -4 -21 -9 -39 -13 l-32 -7 39 -18 c30 -15 42 -16 57
-7 10 6 22 11 28 11 17 0 11 -18 -7 -22 -13 -3 -10 -6 9 -10 16 -3 25 -1 22 4
-3 5 13 8 37 6 23 -2 44 -8 46 -14 2 -7 -6 -10 -24 -6 -52 9 -19 -6 37 -17
113 -23 257 -40 325 -39 39 0 58 3 42 5 -15 2 -25 9 -22 14 4 5 0 9 -7 10 -7
0 3 6 22 14 33 12 31 13 -50 13 -53 0 -77 -4 -65 -9 16 -6 14 -8 -15 -10 -102
-6 -157 -5 -175 3 -16 7 -15 7 7 3 37 -7 88 5 88 21 0 11 -19 14 -80 14 -44 0
-80 4 -80 9 0 13 -130 22 -153 10 -17 -10 -19 -9 -14 6 4 9 7 18 7 19 0 1 15
0 33 -2 17 -3 30 -2 27 0 -9 9 -57 18 -63 12z m200 -80 c-3 -3 -12 -4 -19 -1
-8 3 -5 6 6 6 11 1 17 -2 13 -5z m236 -31 c-13 -2 -35 -2 -50 0 -16 2 -5 4 22
4 28 0 40 -2 28 -4z"/>
<path d="M1833 407 c0 -8 13 -11 39 -9 21 2 38 8 38 13 0 5 -17 9 -38 9 -25 0
-39 -5 -39 -13z"/>
<path d="M2090 400 c0 -18 7 -20 75 -20 68 0 75 2 75 20 0 18 -7 20 -75 20
-68 0 -75 -2 -75 -20z"/>
<path d="M2459 329 c-8 -5 -9 -10 -4 -11 6 -1 -24 -4 -65 -8 l-75 -6 83 -2
c45 -1 82 2 82 7 0 5 8 11 18 13 14 3 14 5 -4 10 -12 3 -28 2 -35 -3z"/>
<path d="M2543 313 c15 -2 37 -2 50 0 12 2 0 4 -28 4 -27 0 -38 -2 -22 -4z"/>
<path d="M2677 314 c-3 -4 -68 -12 -144 -20 l-138 -13 115 4 c144 6 221 15
214 26 -6 10 -38 12 -47 3z"/>
</g>
</svg>
